<?xml version="1.0" standalone="yes"?>
<svg xmlns="http://www.w3.org/2000/svg" width="512" height="512">
<path style="fill:#ffffff; stroke:none;" d="M0 0L0 125L1 125C2.24307 64.7743 64.7745 2.24332 125 1C114.973 -3.2077 97.8961 0 87 0L0 0z"/>
<path style="fill:#010101; stroke:none;" d="M125 0.425171C109.01 2.60175 93.5021 6.51974 79 13.7531C40.054 33.1786 10.3255 69.7958 2.2608 113C-2.40538 137.998 0 164.648 0 190L0 296C0 350.303 -7.41988 407.295 26.1551 454C49.6723 486.714 86.3043 506.967 126 511.715C144.836 513.967 165.026 512 184 512L283 512C319.176 512 358.243 516.124 394 510.576C408.313 508.355 422.072 503.727 435 497.247C473.053 478.174 501.892 441.038 509.739 399C514.464 373.691 512 346.669 512 321L512 211C512 158.028 518.58 103.536 485.845 58C462.328 25.2864 425.696 5.03293 386 0.285492C367.487 -1.92865 347.648 0 329 0L234 0C198.606 0 160.048 -4.34564 125 0.425171z"/>
<path style="fill:#ffffff; stroke:none;" d="M387 0L387 1C447.226 2.24332 509.757 64.7743 511 125L512 125L512 0L387 0M131 46.4283C93.5664 51.7884 60.569 76.781 49.9097 114C43.3144 137.029 46 162.291 46 186L46 310C46 348.188 39.3919 392.032 62.9097 425C92.9811 467.155 136.553 466 183 466L301 466C328.231 466 358.141 469.444 385 464.919C420.798 458.888 451.936 433.456 462.09 398C468.769 374.679 466 349.011 466 325L466 198C466 159.722 471.917 117.649 447.622 85C417.935 45.1055 375.82 46 331 46L213 46C186.407 46 157.312 42.6606 131 46.4283z"/>
<path style="fill:#010101; stroke:none;" d="M389 85.4391C346.369 92.1358 354.364 158.61 397 152.406C440.753 146.039 432.742 78.5678 389 85.4391M241 124.425C219.366 127.37 199.228 134.291 181 146.519C167.197 155.779 154.923 168.049 145.865 182C96.6384 257.822 135.624 363.451 225 384.87C239.237 388.281 255.426 389.458 270 387.715C290.556 385.256 309.311 378.764 327 367.997C340.577 359.733 352.298 348.642 361.869 336C419.125 260.371 376.536 142.052 281 125.921C268.149 123.751 253.984 122.658 241 124.425z"/>
<path style="fill:#ffffff; stroke:none;" d="M247 170.425C232.129 172.449 218.3 177.304 206 186.039C147.185 227.81 165.508 321.591 235 339.37C244.313 341.753 254.411 342.861 264 341.715C278.343 339.999 291.985 335.438 304 327.329C364.608 286.421 347.81 190.747 277 172.63C267.361 170.164 256.904 169.077 247 170.425M0 387L0 512L125 512L125 511C76.042 509.99 31.5196 470.108 11.7816 428C5.63634 414.89 5.52243 399.802 0 387M511 387C509.757 447.225 447.226 509.757 387 511L387 512L512 512L512 425C512 414.104 515.208 397.027 511 387z"/>
</svg>
