<?xml version="1.0" standalone="yes"?>
<svg xmlns="http://www.w3.org/2000/svg" width="512" height="512">
<path style="fill:#010101; stroke:none;" d="M0 0L0 126L1 126C2.25875 65.0147 65.0148 2.25897 126 1C115.973 -3.2077 98.8961 0 88 0L0 0z"/>
<path style="fill:#303030; stroke:none;" d="M126.667 0.333344L127.333 0.666656L126.667 0.333344z"/>
<path style="fill:#6b6b6b; stroke:none;" d="M128 0L128 1L132 1L128 0z"/>
<path style="fill:#a0a0a0; stroke:none;" d="M132 0L132 1L138 1L132 0z"/>
<path style="fill:#ffffff; stroke:none;" d="M138 0.424377C118.499 2.98483 100.135 4.50705 82 13.2585C70.1383 18.9826 59.0764 25.9364 49 34.4391C1.8771 74.2022 0 129.314 0 186L0 287C0 344.45 -8.16282 407.346 28.8843 456C50.2916 484.114 82.0709 503.694 117 509.565C139.628 513.368 163.12 512 186 512L279 512C316.779 512 356.612 515.5 394 509.725C408.26 507.523 422.169 502.766 435 496.244C445.767 490.771 456.014 483.917 465 475.829C512.452 433.122 512 376.767 512 318L512 212C512 160.321 517.838 105.798 486.795 61C432.195 -17.7914 329.153 0 246 0C210.862 0 172.818 -4.14728 138 0.424377z"/>
<path style="fill:#a0a0a0; stroke:none;" d="M374 0L374 1L380 1L374 0z"/>
<path style="fill:#6b6b6b; stroke:none;" d="M380 0L380 1L384 1L380 0z"/>
<path style="fill:#303030; stroke:none;" d="M384.667 0.333344L385.333 0.666656L384.667 0.333344z"/>
<path style="fill:#010101; stroke:none;" d="M386 0L386 1C446.985 2.259 509.741 65.0146 511 126L512 126L512 0L386 0z"/>
<path style="fill:#303030; stroke:none;" d="M119.667 1.33334L120.333 1.66666L119.667 1.33334z"/>
<path style="fill:#6b6b6b; stroke:none;" d="M121 1L122 2L121 1z"/>
<path style="fill:#a0a0a0; stroke:none;" d="M122.667 1.33334L123.333 1.66666L122.667 1.33334M388.667 1.33334L389.333 1.66666L388.667 1.33334z"/>
<path style="fill:#6b6b6b; stroke:none;" d="M390 1L391 2L390 1z"/>
<path style="fill:#303030; stroke:none;" d="M391.667 1.33334L392.333 1.66666L391.667 1.33334M113 2L114 3L113 2z"/>
<path style="fill:#6b6b6b; stroke:none;" d="M114 2L115 3L114 2z"/>
<path style="fill:#a0a0a0; stroke:none;" d="M115.667 2.33334L116.333 2.66666L115.667 2.33334M395.667 2.33334L396.333 2.66666L395.667 2.33334z"/>
<path style="fill:#6b6b6b; stroke:none;" d="M397 2L398 3L397 2z"/>
<path style="fill:#303030; stroke:none;" d="M398 2L399 3L398 2M109 3L110 4L109 3z"/>
<path style="fill:#6b6b6b; stroke:none;" d="M110 3L111 4L110 3z"/>
<path style="fill:#a0a0a0; stroke:none;" d="M111 3L112 4L111 3M400 3L401 4L400 3z"/>
<path style="fill:#6b6b6b; stroke:none;" d="M401 3L402 4L401 3z"/>
<path style="fill:#303030; stroke:none;" d="M402 3L403 4L402 3M105 4L106 5L105 4z"/>
<path style="fill:#6b6b6b; stroke:none;" d="M106 4L107 5L106 4z"/>
<path style="fill:#a0a0a0; stroke:none;" d="M107 4L108 5L107 4M404 4L405 5L404 4z"/>
<path style="fill:#6b6b6b; stroke:none;" d="M405 4L406 5L405 4z"/>
<path style="fill:#303030; stroke:none;" d="M406 4L407 5L406 4M101 5L102 6L101 5z"/>
<path style="fill:#6b6b6b; stroke:none;" d="M102 5L103 6L102 5z"/>
<path style="fill:#a0a0a0; stroke:none;" d="M103 5L104 6L103 5M408 5L409 6L408 5z"/>
<path style="fill:#6b6b6b; stroke:none;" d="M409 5L410 6L409 5z"/>
<path style="fill:#303030; stroke:none;" d="M410 5L411 6L410 5z"/>
<path style="fill:#6b6b6b; stroke:none;" d="M98 6L99 7L98 6z"/>
<path style="fill:#a0a0a0; stroke:none;" d="M99 6L100 7L99 6M412 6L413 7L412 6z"/>
<path style="fill:#6b6b6b; stroke:none;" d="M413 6L414 7L413 6z"/>
<path style="fill:#303030; stroke:none;" d="M95 7L96 8L95 7z"/>
<path style="fill:#a0a0a0; stroke:none;" d="M96 7L97 8L96 7M415 7L416 8L415 7z"/>
<path style="fill:#303030; stroke:none;" d="M416 7L417 8L416 7M92 8L93 9L92 8z"/>
<path style="fill:#6b6b6b; stroke:none;" d="M93 8L94 9L93 8M418 8L419 9L418 8z"/>
<path style="fill:#303030; stroke:none;" d="M419 8L420 9L419 8z"/>
<path style="fill:#6b6b6b; stroke:none;" d="M90 9L91 10L90 9z"/>
<path style="fill:#a0a0a0; stroke:none;" d="M91 9L92 10L91 9M420 9L421 10L420 9z"/>
<path style="fill:#6b6b6b; stroke:none;" d="M421 9L422 10L421 9z"/>
<path style="fill:#303030; stroke:none;" d="M87 10L88 11L87 10z"/>
<path style="fill:#a0a0a0; stroke:none;" d="M88 10L89 11L88 10M423 10L424 11L423 10z"/>
<path style="fill:#303030; stroke:none;" d="M424 10L425 11L424 10z"/>
<path style="fill:#6b6b6b; stroke:none;" d="M85 11L86 12L85 11M426 11L427 12L426 11M83 12L84 13L83 12M428 12L429 13L428 12z"/>
<path style="fill:#a0a0a0; stroke:none;" d="M81 13L82 14L81 13M430 13L431 14L430 13z"/>
<path style="fill:#303030; stroke:none;" d="M78 14L79 15L78 14z"/>
<path style="fill:#a0a0a0; stroke:none;" d="M79 14L80 15L79 14M432 14L433 15L432 14z"/>
<path style="fill:#303030; stroke:none;" d="M433 14L434 15L433 14M76 15L77 16L76 15z"/>
<path style="fill:#a0a0a0; stroke:none;" d="M77 15L78 16L77 15M434 15L435 16L434 15z"/>
<path style="fill:#303030; stroke:none;" d="M435 15L436 16L435 15M74 16L75 17L74 16z"/>
<path style="fill:#a0a0a0; stroke:none;" d="M75 16L76 17L75 16M436 16L437 17L436 16z"/>
<path style="fill:#303030; stroke:none;" d="M437 16L438 17L437 16z"/>
<path style="fill:#a0a0a0; stroke:none;" d="M73 17L74 18L73 17M438 17L439 18L438 17z"/>
<path style="fill:#6b6b6b; stroke:none;" d="M71 18L72 19L71 18M440 18L441 19L440 18z"/>
<path style="fill:#303030; stroke:none;" d="M69 19L70 20L69 19z"/>
<path style="fill:#a0a0a0; stroke:none;" d="M70 19L71 20L70 19M441 19L442 20L441 19z"/>
<path style="fill:#303030; stroke:none;" d="M442 19L443 20L442 19z"/>
<path style="fill:#a0a0a0; stroke:none;" d="M68 20L69 21L68 20M443 20L444 21L443 20z"/>
<path style="fill:#6b6b6b; stroke:none;" d="M66 21L67 22L66 21M445 21L446 22L445 21z"/>
<path style="fill:#303030; stroke:none;" d="M64 22L65 23L64 22z"/>
<path style="fill:#a0a0a0; stroke:none;" d="M65 22L66 23L65 22M446 22L447 23L446 22z"/>
<path style="fill:#303030; stroke:none;" d="M447 22L448 23L447 22z"/>
<path style="fill:#a0a0a0; stroke:none;" d="M63 23L64 24L63 23M448 23L449 24L448 23z"/>
<path style="fill:#303030; stroke:none;" d="M61 24L62 25L61 24M450 24L451 25L450 24z"/>
<path style="fill:#6b6b6b; stroke:none;" d="M60 25L61 26L60 25M451 25L452 26L451 25z"/>
<path style="fill:#a0a0a0; stroke:none;" d="M59 26L60 27L59 26M452 26L453 27L452 26z"/>
<path style="fill:#303030; stroke:none;" d="M57 27L58 28L57 27M454 27L455 28L454 27z"/>
<path style="fill:#6b6b6b; stroke:none;" d="M56 28L57 29L56 28M455 28L456 29L455 28z"/>
<path style="fill:#a0a0a0; stroke:none;" d="M55 29L56 30L55 29M456 29L457 30L456 29z"/>
<path style="fill:#303030; stroke:none;" d="M53 30L54 31L53 30M458 30L459 31L458 30z"/>
<path style="fill:#6b6b6b; stroke:none;" d="M52 31L53 32L52 31M459 31L460 32L459 31z"/>
<path style="fill:#a0a0a0; stroke:none;" d="M51 32L52 33L51 32M460 32L461 33L460 32M50 33L51 34L50 33M461 33L462 34L461 33z"/>
<path style="fill:#303030; stroke:none;" d="M48 34L49 35L48 34M463 34L464 35L463 34M47 35L48 36L47 35M464 35L465 36L464 35M46 36L47 37L46 36M465 36L466 37L465 36M45 37L46 38L45 37M466 37L467 38L466 37z"/>
<path style="fill:#6b6b6b; stroke:none;" d="M44 38L45 39L44 38M467 38L468 39L467 38M43 39L44 40L43 39M468 39L469 40L468 39z"/>
<path style="fill:#a0a0a0; stroke:none;" d="M42 40L43 41L42 40M469 40L470 41L469 40M41 41L42 42L41 41M470 41L471 42L470 41M40 42L41 43L40 42M471 42L472 43L471 42z"/>
<path style="fill:#6b6b6b; stroke:none;" d="M39 43L40 44L39 43M472 43L473 44L472 43M38 44L39 45L38 44M473 44L474 45L473 44z"/>
<path style="fill:#303030; stroke:none;" d="M37 45L38 46L37 45z"/>
<path style="fill:#a0a0a0; stroke:none;" d="M134 45L134 46L140 46L134 45z"/>
<path style="fill:#6b6b6b; stroke:none;" d="M140 45L140 46L372 46L350 45L303 45L140 45z"/>
<path style="fill:#a0a0a0; stroke:none;" d="M372 45L372 46L378 46L372 45z"/>
<path style="fill:#303030; stroke:none;" d="M474 45L475 46L474 45M36 46L37 47L36 46z"/>
<path style="fill:#a0a0a0; stroke:none;" d="M126.667 46.3333L127.333 46.6667L126.667 46.3333z"/>
<path style="fill:#6b6b6b; stroke:none;" d="M128 46L129 47L128 46z"/>
<path style="fill:#303030; stroke:none;" d="M129 46L130 47L129 46z"/>
<path style="fill:#010101; stroke:none;" d="M130 46.4283C92.2887 51.8282 59.9327 77.77 49.4282 115C43.0708 137.532 46 162.81 46 186L46 312C46 350.368 39.71 392.956 63.4282 426C92.8379 466.973 135.717 466 181 466L303 466C329.913 466 359.454 469.391 386 464.919C422.05 458.846 452.573 432.44 462.572 397C469.011 374.177 466 348.492 466 325L466 196C466 157.692 471.69 116.53 447.102 84C417.667 45.0573 376.091 46 332 46L211 46C184.729 46 155.994 42.7062 130 46.4283z"/>
<path style="fill:#303030; stroke:none;" d="M382 46L383 47L382 46z"/>
<path style="fill:#6b6b6b; stroke:none;" d="M383 46L384 47L383 46z"/>
<path style="fill:#a0a0a0; stroke:none;" d="M384.667 46.3333L385.333 46.6667L384.667 46.3333z"/>
<path style="fill:#303030; stroke:none;" d="M475 46L476 47L475 46M35 47L36 48L35 47z"/>
<path style="fill:#a0a0a0; stroke:none;" d="M120 47L121 48L120 47z"/>
<path style="fill:#6b6b6b; stroke:none;" d="M121 47L122 48L121 47z"/>
<path style="fill:#303030; stroke:none;" d="M122.667 47.3333L123.333 47.6667L122.667 47.3333M388.667 47.3333L389.333 47.6667L388.667 47.3333z"/>
<path style="fill:#6b6b6b; stroke:none;" d="M390 47L391 48L390 47z"/>
<path style="fill:#a0a0a0; stroke:none;" d="M391 47L392 48L391 47z"/>
<path style="fill:#303030; stroke:none;" d="M476 47L477 48L476 47M34 48L35 49L34 48z"/>
<path style="fill:#a0a0a0; stroke:none;" d="M116.667 48.3333L117.333 48.6667L116.667 48.3333z"/>
<path style="fill:#303030; stroke:none;" d="M118 48L119 49L118 48M393 48L394 49L393 48z"/>
<path style="fill:#a0a0a0; stroke:none;" d="M394.667 48.3333L395.333 48.6667L394.667 48.3333z"/>
<path style="fill:#303030; stroke:none;" d="M477 48L478 49L477 48z"/>
<path style="fill:#a0a0a0; stroke:none;" d="M113 49L114 50L113 49z"/>
<path style="fill:#6b6b6b; stroke:none;" d="M114 49L115 50L114 49M397 49L398 50L397 49z"/>
<path style="fill:#a0a0a0; stroke:none;" d="M398 49L399 50L398 49M33 50L34 51L33 50M110 50L111 51L110 50z"/>
<path style="fill:#303030; stroke:none;" d="M111 50L112 51L111 50M400 50L401 51L400 50z"/>
<path style="fill:#a0a0a0; stroke:none;" d="M401 50L402 51L401 50M478 50L479 51L478 50M32 51L33 52L32 51M107 51L108 52L107 51z"/>
<path style="fill:#6b6b6b; stroke:none;" d="M108 51L109 52L108 51M403 51L404 52L403 51z"/>
<path style="fill:#a0a0a0; stroke:none;" d="M404 51L405 52L404 51M479 51L480 52L479 51z"/>
<path style="fill:#6b6b6b; stroke:none;" d="M31 52L32 53L31 52z"/>
<path style="fill:#a0a0a0; stroke:none;" d="M104 52L105 53L104 52z"/>
<path style="fill:#6b6b6b; stroke:none;" d="M105 52L106 53L105 52z"/>
<path style="fill:#303030; stroke:none;" d="M405 52L406 53L405 52z"/>
<path style="fill:#6b6b6b; stroke:none;" d="M406 52L407 53L406 52z"/>
<path style="fill:#a0a0a0; stroke:none;" d="M407 52L408 53L407 52z"/>
<path style="fill:#6b6b6b; stroke:none;" d="M480 52L481 53L480 52z"/>
<path style="fill:#303030; stroke:none;" d="M30 53L31 54L30 53z"/>
<path style="fill:#a0a0a0; stroke:none;" d="M102 53L103 54L102 53z"/>
<path style="fill:#303030; stroke:none;" d="M103 53L104 54L103 53M408 53L409 54L408 53z"/>
<path style="fill:#a0a0a0; stroke:none;" d="M409 53L410 54L409 53z"/>
<path style="fill:#303030; stroke:none;" d="M481 53L482 54L481 53z"/>
<path style="fill:#a0a0a0; stroke:none;" d="M100 54L101 55L100 54z"/>
<path style="fill:#303030; stroke:none;" d="M101 54L102 55L101 54M410 54L411 55L410 54z"/>
<path style="fill:#a0a0a0; stroke:none;" d="M411 54L412 55L411 54M29 55L30 56L29 55M98 55L99 56L98 55z"/>
<path style="fill:#303030; stroke:none;" d="M99 55L100 56L99 55M412 55L413 56L412 55z"/>
<path style="fill:#a0a0a0; stroke:none;" d="M413 55L414 56L413 55M482 55L483 56L482 55z"/>
<path style="fill:#6b6b6b; stroke:none;" d="M28 56L29 57L28 56z"/>
<path style="fill:#a0a0a0; stroke:none;" d="M96 56L97 57L96 56z"/>
<path style="fill:#303030; stroke:none;" d="M97 56L98 57L97 56M414 56L415 57L414 56z"/>
<path style="fill:#a0a0a0; stroke:none;" d="M415 56L416 57L415 56z"/>
<path style="fill:#6b6b6b; stroke:none;" d="M483 56L484 57L483 56z"/>
<path style="fill:#303030; stroke:none;" d="M27 57L28 58L27 57z"/>
<path style="fill:#a0a0a0; stroke:none;" d="M94 57L95 58L94 57z"/>
<path style="fill:#303030; stroke:none;" d="M95 57L96 58L95 57M416 57L417 58L416 57z"/>
<path style="fill:#a0a0a0; stroke:none;" d="M417 57L418 58L417 57z"/>
<path style="fill:#303030; stroke:none;" d="M484 57L485 58L484 57M93 58L94 59L93 58M418 58L419 59L418 58z"/>
<path style="fill:#a0a0a0; stroke:none;" d="M26 59L27 60L26 59z"/>
<path style="fill:#6b6b6b; stroke:none;" d="M91 59L92 60L91 59M420 59L421 60L420 59z"/>
<path style="fill:#a0a0a0; stroke:none;" d="M485 59L486 60L485 59z"/>
<path style="fill:#6b6b6b; stroke:none;" d="M25 60L26 61L25 60z"/>
<path style="fill:#a0a0a0; stroke:none;" d="M89 60L90 61L89 60z"/>
<path style="fill:#303030; stroke:none;" d="M90 60L91 61L90 60M421 60L422 61L421 60z"/>
<path style="fill:#a0a0a0; stroke:none;" d="M422 60L423 61L422 60z"/>
<path style="fill:#6b6b6b; stroke:none;" d="M486 60L487 61L486 60z"/>
<path style="fill:#303030; stroke:none;" d="M24 61L25 62L24 61z"/>
<path style="fill:#6b6b6b; stroke:none;" d="M88 61L89 62L88 61M423 61L424 62L423 61z"/>
<path style="fill:#303030; stroke:none;" d="M487 61L488 62L487 61z"/>
<path style="fill:#a0a0a0; stroke:none;" d="M86 62L87 63L86 62z"/>
<path style="fill:#303030; stroke:none;" d="M87 62L88 63L87 62z"/>
<path style="fill:#a0a0a0; stroke:none;" d="M425 62L426 63L425 62M23 63L24 64L23 63z"/>
<path style="fill:#6b6b6b; stroke:none;" d="M85 63L86 64L85 63M426 63L427 64L426 63z"/>
<path style="fill:#a0a0a0; stroke:none;" d="M488 63L489 64L488 63z"/>
<path style="fill:#303030; stroke:none;" d="M22 64L23 65L22 64M84 64L85 65L84 64M427 64L428 65L427 64M489 64L490 65L489 64z"/>
<path style="fill:#a0a0a0; stroke:none;" d="M22 65L23 66L22 65M82 65L83 66L82 65z"/>
<path style="fill:#303030; stroke:none;" d="M83 65L84 66L83 65z"/>
<path style="fill:#a0a0a0; stroke:none;" d="M429 65L430 66L429 65M489 65L490 66L489 65z"/>
<path style="fill:#6b6b6b; stroke:none;" d="M21 66L22 67L21 66M81 66L82 67L81 66M430 66L431 67L430 66M490 66L491 67L490 66z"/>
<path style="fill:#303030; stroke:none;" d="M80 67L81 68L80 67M431 67L432 68L431 67z"/>
<path style="fill:#a0a0a0; stroke:none;" d="M20 68L21 69L20 68z"/>
<path style="fill:#303030; stroke:none;" d="M79 68L80 69L79 68M432 68L433 69L432 68z"/>
<path style="fill:#a0a0a0; stroke:none;" d="M491 68L492 69L491 68z"/>
<path style="fill:#303030; stroke:none;" d="M19 69L20 70L19 69M78 69L79 70L78 69M433 69L434 70L433 69M492 69L493 70L492 69z"/>
<path style="fill:#a0a0a0; stroke:none;" d="M19 70L20 71L19 70M76 70L77 71L76 70z"/>
<path style="fill:#303030; stroke:none;" d="M77 70L78 71L77 70M434 70L435 71L434 70z"/>
<path style="fill:#a0a0a0; stroke:none;" d="M435 70L436 71L435 70M492 70L493 71L492 70z"/>
<path style="fill:#6b6b6b; stroke:none;" d="M18 71L19 72L18 71z"/>
<path style="fill:#a0a0a0; stroke:none;" d="M75 71L76 72L75 71M436 71L437 72L436 71z"/>
<path style="fill:#6b6b6b; stroke:none;" d="M493 71L494 72L493 71z"/>
<path style="fill:#a0a0a0; stroke:none;" d="M74 72L75 73L74 72M437 72L438 73L437 72M17 73L18 74L17 73M73 73L74 74L73 73M438 73L439 74L438 73M494 73L495 74L494 73z"/>
<path style="fill:#303030; stroke:none;" d="M16 74L17 75L16 74z"/>
<path style="fill:#a0a0a0; stroke:none;" d="M72 74L73 75L72 74M439 74L440 75L439 74z"/>
<path style="fill:#303030; stroke:none;" d="M495 74L496 75L495 74z"/>
<path style="fill:#a0a0a0; stroke:none;" d="M16 75L17 76L16 75M71 75L72 76L71 75M440 75L441 76L440 75M495 75L496 76L495 75z"/>
<path style="fill:#303030; stroke:none;" d="M15 76L16 77L15 76z"/>
<path style="fill:#a0a0a0; stroke:none;" d="M70 76L71 77L70 76M441 76L442 77L441 76z"/>
<path style="fill:#303030; stroke:none;" d="M496 76L497 77L496 76z"/>
<path style="fill:#a0a0a0; stroke:none;" d="M15 77L16 78L15 77z"/>
<path style="fill:#303030; stroke:none;" d="M70 77L71 78L70 77M441 77L442 78L441 77z"/>
<path style="fill:#a0a0a0; stroke:none;" d="M496 77L497 78L496 77z"/>
<path style="fill:#303030; stroke:none;" d="M14 78L15 79L14 78M69 78L70 79L69 78M442 78L443 79L442 78M497 78L498 79L497 78z"/>
<path style="fill:#a0a0a0; stroke:none;" d="M14 79L15 80L14 79z"/>
<path style="fill:#303030; stroke:none;" d="M68 79L69 80L68 79M443 79L444 80L443 79z"/>
<path style="fill:#a0a0a0; stroke:none;" d="M497 79L498 80L497 79z"/>
<path style="fill:#303030; stroke:none;" d="M67 80L68 81L67 80M444 80L445 81L444 80z"/>
<path style="fill:#a0a0a0; stroke:none;" d="M13 81L14 82L13 81z"/>
<path style="fill:#6b6b6b; stroke:none;" d="M66 81L67 82L66 81M445 81L446 82L445 81z"/>
<path style="fill:#a0a0a0; stroke:none;" d="M498 81L499 82L498 81M65 82L66 83L65 82M446 82L447 83L446 82z"/>
<path style="fill:#6b6b6b; stroke:none;" d="M12 83L13 84L12 83z"/>
<path style="fill:#303030; stroke:none;" d="M65 83L66 84L65 83M446 83L447 84L446 83z"/>
<path style="fill:#6b6b6b; stroke:none;" d="M499 83L500 84L499 83z"/>
<path style="fill:#303030; stroke:none;" d="M64 84L65 85L64 84M447 84L448 85L447 84z"/>
<path style="fill:#6b6b6b; stroke:none;" d="M11 85L12 86L11 85M63 85L64 86L63 85z"/>
<path style="fill:#303030; stroke:none;" d="M390.667 85.3333L391.333 85.6667L390.667 85.3333z"/>
<path style="fill:#6b6b6b; stroke:none;" d="M392 85L392 86L395 86L392 85z"/>
<path style="fill:#303030; stroke:none;" d="M395.667 85.3333L396.333 85.6667L395.667 85.3333z"/>
<path style="fill:#6b6b6b; stroke:none;" d="M448 85L449 86L448 85M500 85L501 86L500 85z"/>
<path style="fill:#a0a0a0; stroke:none;" d="M62 86L63 87L62 86z"/>
<path style="fill:#6b6b6b; stroke:none;" d="M385 86L386 87L385 86z"/>
<path style="fill:#a0a0a0; stroke:none;" d="M386 86L387 87L386 86z"/>
<path style="fill:#ffffff; stroke:none;" d="M387 86.5178C344.706 95.541 358.905 159.891 401 150.789C441.841 141.957 427.868 77.7986 387 86.5178z"/>
<path style="fill:#a0a0a0; stroke:none;" d="M400 86L401 87L400 86z"/>
<path style="fill:#6b6b6b; stroke:none;" d="M401 86L402 87L401 86z"/>
<path style="fill:#a0a0a0; stroke:none;" d="M449 86L450 87L449 86z"/>
<path style="fill:#303030; stroke:none;" d="M10 87L11 88L10 87M62 87L63 88L62 87M381 87L382 88L381 87z"/>
<path style="fill:#6b6b6b; stroke:none;" d="M382 87L383 88L382 87z"/>
<path style="fill:#a0a0a0; stroke:none;" d="M383 87L384 88L383 87M403 87L404 88L403 87z"/>
<path style="fill:#6b6b6b; stroke:none;" d="M404 87L405 88L404 87z"/>
<path style="fill:#303030; stroke:none;" d="M405 87L406 88L405 87M449 87L450 88L449 87M501 87L502 88L501 87z"/>
<path style="fill:#a0a0a0; stroke:none;" d="M10 88L11 89L10 88z"/>
<path style="fill:#6b6b6b; stroke:none;" d="M61 88L62 89L61 88z"/>
<path style="fill:#303030; stroke:none;" d="M379 88L380 89L379 88z"/>
<path style="fill:#a0a0a0; stroke:none;" d="M380 88L381 89L380 88M406 88L407 89L406 88z"/>
<path style="fill:#303030; stroke:none;" d="M407 88L408 89L407 88z"/>
<path style="fill:#6b6b6b; stroke:none;" d="M450 88L451 89L450 88z"/>
<path style="fill:#a0a0a0; stroke:none;" d="M501 88L502 89L501 88M60 89L61 90L60 89z"/>
<path style="fill:#303030; stroke:none;" d="M377 89L378 90L377 89z"/>
<path style="fill:#a0a0a0; stroke:none;" d="M378 89L379 90L378 89M408 89L409 90L408 89z"/>
<path style="fill:#303030; stroke:none;" d="M409 89L410 90L409 89z"/>
<path style="fill:#a0a0a0; stroke:none;" d="M451 89L452 90L451 89z"/>
<path style="fill:#6b6b6b; stroke:none;" d="M9 90L10 91L9 90z"/>
<path style="fill:#303030; stroke:none;" d="M60 90L61 91L60 90M375 90L376 91L375 90z"/>
<path style="fill:#a0a0a0; stroke:none;" d="M376 90L377 91L376 90M410 90L411 91L410 90z"/>
<path style="fill:#303030; stroke:none;" d="M411 90L412 91L411 90M451 90L452 91L451 90z"/>
<path style="fill:#6b6b6b; stroke:none;" d="M502 90L503 91L502 90z"/>
<path style="fill:#a0a0a0; stroke:none;" d="M9 91L10 92L9 91z"/>
<path style="fill:#6b6b6b; stroke:none;" d="M59 91L60 92L59 91M374 91L375 92L374 91M412 91L413 92L412 91z"/>
<path style="fill:#a0a0a0; stroke:none;" d="M452 91L453 92L452 91M502 91L503 92L502 91z"/>
<path style="fill:#303030; stroke:none;" d="M8 92L9 93L8 92z"/>
<path style="fill:#a0a0a0; stroke:none;" d="M373 92L374 93L373 92M413 92L414 93L413 92z"/>
<path style="fill:#303030; stroke:none;" d="M503 92L504 93L503 92z"/>
<path style="fill:#6b6b6b; stroke:none;" d="M8 93L9 94L8 93z"/>
<path style="fill:#303030; stroke:none;" d="M58 93L59 94L58 93z"/>
<path style="fill:#a0a0a0; stroke:none;" d="M372 93L373 94L372 93M414 93L415 94L414 93z"/>
<path style="fill:#6b6b6b; stroke:none;" d="M453 93L454 94L453 93M503 93L504 94L503 93z"/>
<path style="fill:#a0a0a0; stroke:none;" d="M57 94L58 95L57 94z"/>
<path style="fill:#303030; stroke:none;" d="M370 94L371 95L370 94M416 94L417 95L416 94z"/>
<path style="fill:#a0a0a0; stroke:none;" d="M454 94L455 95L454 94z"/>
<path style="fill:#303030; stroke:none;" d="M7 95L8 96L7 95M57 95L58 96L57 95M369 95L370 96L369 95M417 95L418 96L417 95M454 95L455 96L454 95M504 95L505 96L504 95z"/>
<path style="fill:#a0a0a0; stroke:none;" d="M7 96L8 97L7 96M56 96L57 97L56 96z"/>
<path style="fill:#303030; stroke:none;" d="M368 96L369 97L368 96z"/>
<path style="fill:#a0a0a0; stroke:none;" d="M455 96L456 97L455 96M504 96L505 97L504 96z"/>
<path style="fill:#303030; stroke:none;" d="M56 97L57 98L56 97z"/>
<path style="fill:#a0a0a0; stroke:none;" d="M418 97L419 98L418 97z"/>
<path style="fill:#303030; stroke:none;" d="M455 97L456 98L455 97z"/>
<path style="fill:#6b6b6b; stroke:none;" d="M6 98L7 99L6 98z"/>
<path style="fill:#a0a0a0; stroke:none;" d="M55 98L56 99L55 98M367 98L368 99L367 98M419 98L420 99L419 98M456 98L457 99L456 98z"/>
<path style="fill:#6b6b6b; stroke:none;" d="M505 98L506 99L505 98z"/>
<path style="fill:#a0a0a0; stroke:none;" d="M6 99L7 100L6 99z"/>
<path style="fill:#303030; stroke:none;" d="M55 99L56 100L55 99z"/>
<path style="fill:#6b6b6b; stroke:none;" d="M366 99L367 100L366 99M420 99L421 100L420 99z"/>
<path style="fill:#303030; stroke:none;" d="M456 99L457 100L456 99z"/>
<path style="fill:#a0a0a0; stroke:none;" d="M505 99L506 100L505 99M54 100L55 101L54 100z"/>
<path style="fill:#303030; stroke:none;" d="M365 100L366 101L365 100M421 100L422 101L421 100z"/>
<path style="fill:#a0a0a0; stroke:none;" d="M457 100L458 101L457 100z"/>
<path style="fill:#303030; stroke:none;" d="M5 101L6 102L5 101M54 101L55 102L54 101z"/>
<path style="fill:#a0a0a0; stroke:none;" d="M365 101L366 102L365 101M421 101L422 102L421 101z"/>
<path style="fill:#303030; stroke:none;" d="M457 101L458 102L457 101M506 101L507 102L506 101z"/>
<path style="fill:#6b6b6b; stroke:none;" d="M5 102L6 103L5 102z"/>
<path style="fill:#a0a0a0; stroke:none;" d="M53 102L54 103L53 102z"/>
<path style="fill:#6b6b6b; stroke:none;" d="M364 102L365 103L364 102z"/>
<path style="fill:#303030; stroke:none;" d="M422 102L423 103L422 102z"/>
<path style="fill:#a0a0a0; stroke:none;" d="M458 102L459 103L458 102z"/>
<path style="fill:#6b6b6b; stroke:none;" d="M506 102L507 103L506 102z"/>
<path style="fill:#a0a0a0; stroke:none;" d="M5 103L6 104L5 103z"/>
<path style="fill:#303030; stroke:none;" d="M53 103L54 104L53 103M458 103L459 104L458 103z"/>
<path style="fill:#a0a0a0; stroke:none;" d="M506 103L507 104L506 103M52 104L53 105L52 104z"/>
<path style="fill:#6b6b6b; stroke:none;" d="M363 104L364 105L363 104M423 104L424 105L423 104z"/>
<path style="fill:#a0a0a0; stroke:none;" d="M459 104L460 105L459 104z"/>
<path style="fill:#303030; stroke:none;" d="M4 105L5 106L4 105z"/>
<path style="fill:#6b6b6b; stroke:none;" d="M52 105L53 106L52 105M459 105L460 106L459 105z"/>
<path style="fill:#303030; stroke:none;" d="M507 105L508 106L507 105z"/>
<path style="fill:#6b6b6b; stroke:none;" d="M4 106L5 107L4 106M362 106L363 107L362 106M424 106L425 107L424 106M507 106L508 107L507 106z"/>
<path style="fill:#a0a0a0; stroke:none;" d="M4 107L5 108L4 107M51 107L52 108L51 107M362 107L363 108L362 107M424 107L425 108L424 107M460 107L461 108L460 107M507 107L508 108L507 107z"/>
<path style="fill:#6b6b6b; stroke:none;" d="M51 108L52 109L51 108M460 108L461 109L460 108z"/>
<path style="fill:#303030; stroke:none;" d="M3 109L4 110L3 109z"/>
<path style="fill:#6b6b6b; stroke:none;" d="M361 109L362 110L361 109z"/>
<path style="fill:#303030; stroke:none;" d="M425 109L426 110L425 109M508 109L509 110L508 109z"/>
<path style="fill:#6b6b6b; stroke:none;" d="M3 110L4 111L3 110z"/>
<path style="fill:#a0a0a0; stroke:none;" d="M50 110L51 111L50 110M361 110L362 111L361 110M425 110L426 111L425 110M461 110L462 111L461 110z"/>
<path style="fill:#6b6b6b; stroke:none;" d="M508 110L509 111L508 110z"/>
<path style="fill:#a0a0a0; stroke:none;" d="M3 111L4 112L3 111z"/>
<path style="fill:#303030; stroke:none;" d="M50 111L51 112L50 111M461 111L462 112L461 111z"/>
<path style="fill:#a0a0a0; stroke:none;" d="M508 111L509 112L508 111z"/>
<path style="fill:#303030; stroke:none;" d="M360.333 112.667L360.667 113.333L360.333 112.667M426.333 112.667L426.667 113.333L426.333 112.667M2 113L3 114L2 113z"/>
<path style="fill:#a0a0a0; stroke:none;" d="M49 113L50 114L49 113M462 113L463 114L462 113z"/>
<path style="fill:#303030; stroke:none;" d="M509 113L510 114L509 113z"/>
<path style="fill:#6b6b6b; stroke:none;" d="M2 114L3 115L2 114M49 114L50 115L49 114M360.333 114.667L360.667 115.333L360.333 114.667M426.333 114.667L426.667 115.333L426.333 114.667M462 114L463 115L462 114M509 114L510 115L509 114z"/>
<path style="fill:#a0a0a0; stroke:none;" d="M2.33333 115.667L2.66667 116.333L2.33333 115.667M509.333 115.667L509.667 116.333L509.333 115.667M48.3333 116.667L48.6667 117.333L48.3333 116.667M360 116L360 122L361 122L360 116M426 116L426 121L427 121L426 116M463.333 116.667L463.667 117.333L463.333 116.667z"/>
<path style="fill:#303030; stroke:none;" d="M48 118L49 119L48 118M463 118L464 119L463 118M1.33333 119.667L1.66667 120.333L1.33333 119.667M510.333 119.667L510.667 120.333L510.333 119.667z"/>
<path style="fill:#a0a0a0; stroke:none;" d="M47 120L48 121L47 120M464 120L465 121L464 120z"/>
<path style="fill:#6b6b6b; stroke:none;" d="M1 121L2 122L1 121M47 121L48 122L47 121M426 121L426 124L427 124L426 121M464 121L465 122L464 121M510 121L511 122L510 121z"/>
<path style="fill:#a0a0a0; stroke:none;" d="M1.33333 122.667L1.66667 123.333L1.33333 122.667z"/>
<path style="fill:#303030; stroke:none;" d="M47.3333 122.667L47.6667 123.333L47.3333 122.667z"/>
<path style="fill:#6b6b6b; stroke:none;" d="M360.333 122.667L360.667 123.333L360.333 122.667z"/>
<path style="fill:#303030; stroke:none;" d="M464.333 122.667L464.667 123.333L464.333 122.667z"/>
<path style="fill:#a0a0a0; stroke:none;" d="M510.333 122.667L510.667 123.333L510.333 122.667z"/>
<path style="fill:#303030; stroke:none;" d="M242.667 124.333L243.333 124.667L242.667 124.333z"/>
<path style="fill:#6b6b6b; stroke:none;" d="M244 124L244 125L248 125L244 124z"/>
<path style="fill:#a0a0a0; stroke:none;" d="M248 124L248 125L254 125L248 124z"/>
<path style="fill:#ffffff; stroke:none;" d="M254 124.464C223.443 127.138 196.258 134.53 172 154.464C159.396 164.821 148.801 177.771 140.862 192C103.562 258.854 133.444 346.912 204 377.127C224.607 385.952 247.804 388.951 270 386.83C336.149 380.51 387.66 321.994 387.66 256C387.66 187.217 326.328 118.134 254 124.464z"/>
<path style="fill:#a0a0a0; stroke:none;" d="M258 124L258 125L264 125L258 124z"/>
<path style="fill:#6b6b6b; stroke:none;" d="M264 124L264 125L268 125L264 124z"/>
<path style="fill:#303030; stroke:none;" d="M268.667 124.333L269.333 124.667L268.667 124.333M360.333 124.667L360.667 125.333L360.333 124.667M426.333 124.667L426.667 125.333L426.333 124.667M235 125L236 126L235 125z"/>
<path style="fill:#6b6b6b; stroke:none;" d="M236.667 125.333L237.333 125.667L236.667 125.333z"/>
<path style="fill:#a0a0a0; stroke:none;" d="M238.667 125.333L239.333 125.667L238.667 125.333M272.667 125.333L273.333 125.667L272.667 125.333z"/>
<path style="fill:#6b6b6b; stroke:none;" d="M274.667 125.333L275.333 125.667L274.667 125.333z"/>
<path style="fill:#303030; stroke:none;" d="M276 125L277 126L276 125M0.333333 126.667L0.666667 127.333L0.333333 126.667z"/>
<path style="fill:#a0a0a0; stroke:none;" d="M46.3333 126.667L46.6667 127.333L46.3333 126.667z"/>
<path style="fill:#303030; stroke:none;" d="M229 126L230 127L229 126z"/>
<path style="fill:#6b6b6b; stroke:none;" d="M230 126L231 127L230 126z"/>
<path style="fill:#a0a0a0; stroke:none;" d="M231.667 126.333L232.333 126.667L231.667 126.333M279.667 126.333L280.333 126.667L279.667 126.333z"/>
<path style="fill:#6b6b6b; stroke:none;" d="M281 126L282 127L281 126z"/>
<path style="fill:#303030; stroke:none;" d="M282 126L283 127L282 126z"/>
<path style="fill:#a0a0a0; stroke:none;" d="M425 126L426 127L425 126M465.333 126.667L465.667 127.333L465.333 126.667z"/>
<path style="fill:#303030; stroke:none;" d="M511.333 126.667L511.667 127.333L511.333 126.667M225 127L226 128L225 127z"/>
<path style="fill:#6b6b6b; stroke:none;" d="M226 127L227 128L226 127z"/>
<path style="fill:#a0a0a0; stroke:none;" d="M227 127L228 128L227 127M284 127L285 128L284 127z"/>
<path style="fill:#6b6b6b; stroke:none;" d="M285 127L286 128L285 127z"/>
<path style="fill:#303030; stroke:none;" d="M286 127L287 128L286 127z"/>
<path style="fill:#a0a0a0; stroke:none;" d="M361 127L362 128L361 127z"/>
<path style="fill:#6b6b6b; stroke:none;" d="M425 127L426 128L425 127M0 128L0 132L1 132L0 128M46 128L47 129L46 128z"/>
<path style="fill:#303030; stroke:none;" d="M221 128L222 129L221 128z"/>
<path style="fill:#6b6b6b; stroke:none;" d="M222 128L223 129L222 128z"/>
<path style="fill:#a0a0a0; stroke:none;" d="M223 128L224 129L223 128M288 128L289 129L288 128z"/>
<path style="fill:#6b6b6b; stroke:none;" d="M289 128L290 129L289 128z"/>
<path style="fill:#303030; stroke:none;" d="M290 128L291 129L290 128M361 128L362 129L361 128M425 128L426 129L425 128z"/>
<path style="fill:#6b6b6b; stroke:none;" d="M465 128L466 129L465 128M511 128L511 132L512 132L511 128z"/>
<path style="fill:#303030; stroke:none;" d="M46 129L47 130L46 129M217 129L218 130L217 129z"/>
<path style="fill:#6b6b6b; stroke:none;" d="M218 129L219 130L218 129z"/>
<path style="fill:#a0a0a0; stroke:none;" d="M219 129L220 130L219 129M292 129L293 130L292 129z"/>
<path style="fill:#6b6b6b; stroke:none;" d="M293 129L294 130L293 129z"/>
<path style="fill:#303030; stroke:none;" d="M294 129L295 130L294 129M465 129L466 130L465 129M214 130L215 131L214 130z"/>
<path style="fill:#6b6b6b; stroke:none;" d="M215 130L216 131L215 130M296 130L297 131L296 130z"/>
<path style="fill:#303030; stroke:none;" d="M297 130L298 131L297 130z"/>
<path style="fill:#a0a0a0; stroke:none;" d="M362 130L363 131L362 130M424 130L425 131L424 130z"/>
<path style="fill:#6b6b6b; stroke:none;" d="M212 131L213 132L212 131z"/>
<path style="fill:#a0a0a0; stroke:none;" d="M213 131L214 132L213 131M298 131L299 132L298 131z"/>
<path style="fill:#6b6b6b; stroke:none;" d="M299 131L300 132L299 131z"/>
<path style="fill:#303030; stroke:none;" d="M362 131L363 132L362 131M424 131L425 132L424 131z"/>
<path style="fill:#a0a0a0; stroke:none;" d="M0 132L0 138L1 138L0 132z"/>
<path style="fill:#303030; stroke:none;" d="M209 132L210 133L209 132z"/>
<path style="fill:#a0a0a0; stroke:none;" d="M210 132L211 133L210 132M301 132L302 133L301 132z"/>
<path style="fill:#303030; stroke:none;" d="M302 132L303 133L302 132z"/>
<path style="fill:#a0a0a0; stroke:none;" d="M363 132L364 133L363 132M423 132L424 133L423 132M511 132L511 138L512 138L511 132z"/>
<path style="fill:#303030; stroke:none;" d="M206 133L207 134L206 133z"/>
<path style="fill:#a0a0a0; stroke:none;" d="M207 133L208 134L207 133M304 133L305 134L304 133z"/>
<path style="fill:#303030; stroke:none;" d="M305 133L306 134L305 133M363 133L364 134L363 133M423 133L424 134L423 133z"/>
<path style="fill:#a0a0a0; stroke:none;" d="M45 134L45 140L46 140L45 134z"/>
<path style="fill:#6b6b6b; stroke:none;" d="M204 134L205 135L204 134M307 134L308 135L307 134z"/>
<path style="fill:#a0a0a0; stroke:none;" d="M364 134L365 135L364 134M422 134L423 135L422 134M466 134L466 140L467 140L466 134z"/>
<path style="fill:#6b6b6b; stroke:none;" d="M202 135L203 136L202 135M309 135L310 136L309 135z"/>
<path style="fill:#303030; stroke:none;" d="M364 135L365 136L364 135M422 135L423 136L422 135z"/>
<path style="fill:#6b6b6b; stroke:none;" d="M200 136L201 137L200 136M311 136L312 137L311 136z"/>
<path style="fill:#a0a0a0; stroke:none;" d="M365 136L366 137L365 136M421 136L422 137L421 136M198 137L199 138L198 137M313 137L314 138L313 137z"/>
<path style="fill:#303030; stroke:none;" d="M365 137L366 138L365 137M421 137L422 138L421 137M195 138L196 139L195 138z"/>
<path style="fill:#a0a0a0; stroke:none;" d="M196 138L197 139L196 138M315 138L316 139L315 138z"/>
<path style="fill:#303030; stroke:none;" d="M316 138L317 139L316 138M366 138L367 139L366 138M420 138L421 139L420 138M193 139L194 140L193 139z"/>
<path style="fill:#a0a0a0; stroke:none;" d="M194 139L195 140L194 139M317 139L318 140L317 139z"/>
<path style="fill:#303030; stroke:none;" d="M318 139L319 140L318 139z"/>
<path style="fill:#6b6b6b; stroke:none;" d="M367 139L368 140L367 139M419 139L420 140L419 139M45 140L45 372L46 372L46 209L46 162L45 140z"/>
<path style="fill:#a0a0a0; stroke:none;" d="M192 140L193 141L192 140M319 140L320 141L319 140M368 140L369 141L368 140M418 140L419 141L418 140z"/>
<path style="fill:#6b6b6b; stroke:none;" d="M466 140L466 372L467 372L467 209L467 162L466 140M190 141L191 142L190 141M321 141L322 142L321 141z"/>
<path style="fill:#a0a0a0; stroke:none;" d="M369 141L370 142L369 141M417 141L418 142L417 141z"/>
<path style="fill:#303030; stroke:none;" d="M188 142L189 143L188 142z"/>
<path style="fill:#a0a0a0; stroke:none;" d="M189 142L190 143L189 142M322 142L323 143L322 142z"/>
<path style="fill:#303030; stroke:none;" d="M323 142L324 143L323 142M369 142L370 143L369 142z"/>
<path style="fill:#a0a0a0; stroke:none;" d="M187 143L188 144L187 143M324 143L325 144L324 143M371 143L372 144L371 143M415 143L416 144L415 143z"/>
<path style="fill:#6b6b6b; stroke:none;" d="M185 144L186 145L185 144M326 144L327 145L326 144z"/>
<path style="fill:#a0a0a0; stroke:none;" d="M372 144L373 145L372 144z"/>
<path style="fill:#6b6b6b; stroke:none;" d="M414 144L415 145L414 144z"/>
<path style="fill:#303030; stroke:none;" d="M183 145L184 146L183 145z"/>
<path style="fill:#a0a0a0; stroke:none;" d="M184 145L185 146L184 145M327 145L328 146L327 145z"/>
<path style="fill:#303030; stroke:none;" d="M328 145L329 146L328 145z"/>
<path style="fill:#6b6b6b; stroke:none;" d="M373 145L374 146L373 145M413 145L414 146L413 145M182 146L183 147L182 146M329 146L330 147L329 146z"/>
<path style="fill:#303030; stroke:none;" d="M374 146L375 147L374 146z"/>
<path style="fill:#a0a0a0; stroke:none;" d="M411 146L412 147L411 146z"/>
<path style="fill:#303030; stroke:none;" d="M412 146L413 147L412 146M180 147L181 148L180 147z"/>
<path style="fill:#a0a0a0; stroke:none;" d="M181 147L182 148L181 147M330 147L331 148L330 147z"/>
<path style="fill:#303030; stroke:none;" d="M331 147L332 148L331 147z"/>
<path style="fill:#6b6b6b; stroke:none;" d="M376 147L377 148L376 147M410 147L411 148L410 147z"/>
<path style="fill:#303030; stroke:none;" d="M179 148L180 149L179 148M332 148L333 149L332 148z"/>
<path style="fill:#6b6b6b; stroke:none;" d="M378 148L379 149L378 148M408 148L409 149L408 148z"/>
<path style="fill:#a0a0a0; stroke:none;" d="M178 149L179 150L178 149M333 149L334 150L333 149z"/>
<path style="fill:#6b6b6b; stroke:none;" d="M380 149L381 150L380 149M406 149L407 150L406 149z"/>
<path style="fill:#303030; stroke:none;" d="M176 150L177 151L176 150z"/>
<path style="fill:#a0a0a0; stroke:none;" d="M177 150L178 151L177 150M334 150L335 151L334 150z"/>
<path style="fill:#303030; stroke:none;" d="M335 150L336 151L335 150M382 150L383 151L382 150z"/>
<path style="fill:#6b6b6b; stroke:none;" d="M383 150L384 151L383 150z"/>
<path style="fill:#a0a0a0; stroke:none;" d="M384 150L385 151L384 150M402 150L403 151L402 150z"/>
<path style="fill:#6b6b6b; stroke:none;" d="M403 150L404 151L403 150z"/>
<path style="fill:#303030; stroke:none;" d="M404 150L405 151L404 150M175 151L176 152L175 151M336 151L337 152L336 151z"/>
<path style="fill:#6b6b6b; stroke:none;" d="M386 151L387 152L386 151z"/>
<path style="fill:#a0a0a0; stroke:none;" d="M387 151L387 152L390 152L387 151M397 151L397 152L400 152L397 151z"/>
<path style="fill:#6b6b6b; stroke:none;" d="M400 151L401 152L400 151z"/>
<path style="fill:#a0a0a0; stroke:none;" d="M174 152L175 153L174 152M337 152L338 153L337 152z"/>
<path style="fill:#303030; stroke:none;" d="M393.667 152.333L394.333 152.667L393.667 152.333M172 153L173 154L172 153z"/>
<path style="fill:#a0a0a0; stroke:none;" d="M173 153L174 154L173 153M338 153L339 154L338 153z"/>
<path style="fill:#303030; stroke:none;" d="M339 153L340 154L339 153M171 154L172 155L171 154M340 154L341 155L340 154M170 155L171 156L170 155M341 155L342 156L341 155z"/>
<path style="fill:#6b6b6b; stroke:none;" d="M169 156L170 157L169 156M342 156L343 157L342 156M168 157L169 158L168 157M343 157L344 158L343 157z"/>
<path style="fill:#a0a0a0; stroke:none;" d="M167 158L168 159L167 158M344 158L345 159L344 158M166 159L167 160L166 159M345 159L346 160L345 159M165 160L166 161L165 160M346 160L347 161L346 160z"/>
<path style="fill:#303030; stroke:none;" d="M163 161L164 162L163 161z"/>
<path style="fill:#a0a0a0; stroke:none;" d="M164 161L165 162L164 161M347 161L348 162L347 161z"/>
<path style="fill:#303030; stroke:none;" d="M348 161L349 162L348 161M162 162L163 163L162 162M349 162L350 163L349 162M161 163L162 164L161 163M350 163L351 164L350 163z"/>
<path style="fill:#a0a0a0; stroke:none;" d="M161 164L162 165L161 164M350 164L351 165L350 164M160 165L161 166L160 165M351 165L352 166L351 165M159 166L160 167L159 166M352 166L353 167L352 166M158 167L159 168L158 167M353 167L354 168L353 167z"/>
<path style="fill:#6b6b6b; stroke:none;" d="M157 168L158 169L157 168M354 168L355 169L354 168M156 169L157 170L156 169z"/>
<path style="fill:#a0a0a0; stroke:none;" d="M250 169L250 170L255 170L250 169z"/>
<path style="fill:#6b6b6b; stroke:none;" d="M255.667 169.333L256.333 169.667L255.667 169.333z"/>
<path style="fill:#a0a0a0; stroke:none;" d="M257 169L257 170L262 170L257 169z"/>
<path style="fill:#6b6b6b; stroke:none;" d="M355 169L356 170L355 169M155 170L156 171L155 170z"/>
<path style="fill:#a0a0a0; stroke:none;" d="M241.667 170.333L242.333 170.667L241.667 170.333z"/>
<path style="fill:#6b6b6b; stroke:none;" d="M243.667 170.333L244.333 170.667L243.667 170.333z"/>
<path style="fill:#303030; stroke:none;" d="M245 170L246 171L245 170z"/>
<path style="fill:#010101; stroke:none;" d="M246 170.428C231.128 172.558 217.27 177.616 205 186.428C146.254 228.618 166.491 326.167 238 340.196C247.102 341.982 256.758 342.895 266 341.572C280.872 339.442 294.729 334.384 307 325.572C365.746 283.382 345.509 185.833 274 171.804C264.898 170.018 255.242 169.105 246 170.428z"/>
<path style="fill:#303030; stroke:none;" d="M266 170L267 171L266 170z"/>
<path style="fill:#6b6b6b; stroke:none;" d="M267.667 170.333L268.333 170.667L267.667 170.333z"/>
<path style="fill:#a0a0a0; stroke:none;" d="M269.667 170.333L270.333 170.667L269.667 170.333z"/>
<path style="fill:#303030; stroke:none;" d="M356 170L357 171L356 170M154 171L155 172L154 171z"/>
<path style="fill:#a0a0a0; stroke:none;" d="M236.667 171.333L237.333 171.667L236.667 171.333z"/>
<path style="fill:#303030; stroke:none;" d="M238.667 171.333L239.333 171.667L238.667 171.333M272.667 171.333L273.333 171.667L272.667 171.333z"/>
<path style="fill:#a0a0a0; stroke:none;" d="M274.667 171.333L275.333 171.667L274.667 171.333z"/>
<path style="fill:#303030; stroke:none;" d="M357 171L358 172L357 171M153 172L154 173L153 172z"/>
<path style="fill:#a0a0a0; stroke:none;" d="M233 172L234 173L233 172z"/>
<path style="fill:#6b6b6b; stroke:none;" d="M234 172L235 173L234 172M277 172L278 173L277 172z"/>
<path style="fill:#a0a0a0; stroke:none;" d="M278 172L279 173L278 172z"/>
<path style="fill:#303030; stroke:none;" d="M358 172L359 173L358 172z"/>
<path style="fill:#a0a0a0; stroke:none;" d="M153 173L154 174L153 173M229 173L230 174L229 173z"/>
<path style="fill:#6b6b6b; stroke:none;" d="M230 173L231 174L230 173M281 173L282 174L281 173z"/>
<path style="fill:#a0a0a0; stroke:none;" d="M282 173L283 174L282 173M358 173L359 174L358 173M152 174L153 175L152 174M226 174L227 175L226 174z"/>
<path style="fill:#6b6b6b; stroke:none;" d="M227 174L228 175L227 174M284 174L285 175L284 174z"/>
<path style="fill:#a0a0a0; stroke:none;" d="M285 174L286 175L285 174M359 174L360 175L359 174z"/>
<path style="fill:#6b6b6b; stroke:none;" d="M151 175L152 176L151 175z"/>
<path style="fill:#a0a0a0; stroke:none;" d="M224 175L225 176L224 175z"/>
<path style="fill:#303030; stroke:none;" d="M225 175L226 176L225 175M286 175L287 176L286 175z"/>
<path style="fill:#a0a0a0; stroke:none;" d="M287 175L288 176L287 175z"/>
<path style="fill:#303030; stroke:none;" d="M360 175L361 176L360 175M150 176L151 177L150 176z"/>
<path style="fill:#a0a0a0; stroke:none;" d="M221 176L222 177L221 176z"/>
<path style="fill:#303030; stroke:none;" d="M222 176L223 177L222 176M289 176L290 177L289 176z"/>
<path style="fill:#a0a0a0; stroke:none;" d="M290 176L291 177L290 176z"/>
<path style="fill:#303030; stroke:none;" d="M361 176L362 177L361 176z"/>
<path style="fill:#a0a0a0; stroke:none;" d="M150 177L151 178L150 177M219 177L220 178L219 177z"/>
<path style="fill:#303030; stroke:none;" d="M220 177L221 178L220 177M291 177L292 178L291 177z"/>
<path style="fill:#a0a0a0; stroke:none;" d="M292 177L293 178L292 177M361 177L362 178L361 177M149 178L150 179L149 178M217 178L218 179L217 178z"/>
<path style="fill:#303030; stroke:none;" d="M218 178L219 179L218 178M293 178L294 179L293 178z"/>
<path style="fill:#a0a0a0; stroke:none;" d="M294 178L295 179L294 178M362 178L363 179L362 178z"/>
<path style="fill:#303030; stroke:none;" d="M148 179L149 180L148 179z"/>
<path style="fill:#a0a0a0; stroke:none;" d="M215 179L216 180L215 179z"/>
<path style="fill:#303030; stroke:none;" d="M216 179L217 180L216 179M295 179L296 180L295 179z"/>
<path style="fill:#a0a0a0; stroke:none;" d="M296 179L297 180L296 179z"/>
<path style="fill:#303030; stroke:none;" d="M363 179L364 180L363 179M147 180L148 181L147 180z"/>
<path style="fill:#a0a0a0; stroke:none;" d="M213 180L214 181L213 180z"/>
<path style="fill:#303030; stroke:none;" d="M214 180L215 181L214 180M297 180L298 181L297 180z"/>
<path style="fill:#a0a0a0; stroke:none;" d="M298 180L299 181L298 180z"/>
<path style="fill:#303030; stroke:none;" d="M364 180L365 181L364 180z"/>
<path style="fill:#a0a0a0; stroke:none;" d="M147 181L148 182L147 181z"/>
<path style="fill:#6b6b6b; stroke:none;" d="M212 181L213 182L212 181M299 181L300 182L299 181z"/>
<path style="fill:#a0a0a0; stroke:none;" d="M364 181L365 182L364 181z"/>
<path style="fill:#6b6b6b; stroke:none;" d="M146 182L147 183L146 182z"/>
<path style="fill:#a0a0a0; stroke:none;" d="M210 182L211 183L210 182M301 182L302 183L301 182z"/>
<path style="fill:#6b6b6b; stroke:none;" d="M365 182L366 183L365 182z"/>
<path style="fill:#303030; stroke:none;" d="M145 183L146 184L145 183z"/>
<path style="fill:#a0a0a0; stroke:none;" d="M208 183L209 184L208 183z"/>
<path style="fill:#303030; stroke:none;" d="M209 183L210 184L209 183M302 183L303 184L302 183z"/>
<path style="fill:#a0a0a0; stroke:none;" d="M303 183L304 184L303 183z"/>
<path style="fill:#303030; stroke:none;" d="M366 183L367 184L366 183z"/>
<path style="fill:#a0a0a0; stroke:none;" d="M145 184L146 185L145 184z"/>
<path style="fill:#6b6b6b; stroke:none;" d="M207 184L208 185L207 184M304 184L305 185L304 184z"/>
<path style="fill:#a0a0a0; stroke:none;" d="M366 184L367 185L366 184z"/>
<path style="fill:#6b6b6b; stroke:none;" d="M144 185L145 186L144 185z"/>
<path style="fill:#303030; stroke:none;" d="M206 185L207 186L206 185M305 185L306 186L305 185z"/>
<path style="fill:#6b6b6b; stroke:none;" d="M367 185L368 186L367 185z"/>
<path style="fill:#a0a0a0; stroke:none;" d="M204 186L205 187L204 186M307 186L308 187L307 186M143 187L144 188L143 187z"/>
<path style="fill:#6b6b6b; stroke:none;" d="M203 187L204 188L203 187M308 187L309 188L308 187z"/>
<path style="fill:#a0a0a0; stroke:none;" d="M368 187L369 188L368 187z"/>
<path style="fill:#303030; stroke:none;" d="M142 188L143 189L142 188M202 188L203 189L202 188M309 188L310 189L309 188M369 188L370 189L369 188z"/>
<path style="fill:#a0a0a0; stroke:none;" d="M142 189L143 190L142 189M200 189L201 190L200 189M311 189L312 190L311 189M369 189L370 190L369 189z"/>
<path style="fill:#6b6b6b; stroke:none;" d="M141 190L142 191L141 190z"/>
<path style="fill:#a0a0a0; stroke:none;" d="M199 190L200 191L199 190M312 190L313 191L312 190z"/>
<path style="fill:#6b6b6b; stroke:none;" d="M370 190L371 191L370 190z"/>
<path style="fill:#a0a0a0; stroke:none;" d="M198 191L199 192L198 191M313 191L314 192L313 191M140 192L141 193L140 192z"/>
<path style="fill:#6b6b6b; stroke:none;" d="M197 192L198 193L197 192M314 192L315 193L314 192z"/>
<path style="fill:#a0a0a0; stroke:none;" d="M371 192L372 193L371 192z"/>
<path style="fill:#303030; stroke:none;" d="M139 193L140 194L139 193z"/>
<path style="fill:#6b6b6b; stroke:none;" d="M196 193L197 194L196 193M315 193L316 194L315 193z"/>
<path style="fill:#303030; stroke:none;" d="M372 193L373 194L372 193z"/>
<path style="fill:#a0a0a0; stroke:none;" d="M139 194L140 195L139 194z"/>
<path style="fill:#6b6b6b; stroke:none;" d="M195 194L196 195L195 194M316 194L317 195L316 194z"/>
<path style="fill:#a0a0a0; stroke:none;" d="M372 194L373 195L372 194z"/>
<path style="fill:#303030; stroke:none;" d="M138 195L139 196L138 195z"/>
<path style="fill:#6b6b6b; stroke:none;" d="M194 195L195 196L194 195M317 195L318 196L317 195z"/>
<path style="fill:#303030; stroke:none;" d="M373 195L374 196L373 195z"/>
<path style="fill:#a0a0a0; stroke:none;" d="M138 196L139 197L138 196z"/>
<path style="fill:#6b6b6b; stroke:none;" d="M193 196L194 197L193 196M318 196L319 197L318 196z"/>
<path style="fill:#a0a0a0; stroke:none;" d="M373 196L374 197L373 196z"/>
<path style="fill:#6b6b6b; stroke:none;" d="M192 197L193 198L192 197M319 197L320 198L319 197z"/>
<path style="fill:#a0a0a0; stroke:none;" d="M137 198L138 199L137 198M191 198L192 199L191 198M320 198L321 199L320 198M374 198L375 199L374 198M190 199L191 200L190 199M321 199L322 200L321 199z"/>
<path style="fill:#6b6b6b; stroke:none;" d="M136 200L137 201L136 200z"/>
<path style="fill:#a0a0a0; stroke:none;" d="M189 200L190 201L189 200M322 200L323 201L322 200z"/>
<path style="fill:#6b6b6b; stroke:none;" d="M375 200L376 201L375 200M135 202L136 203L135 202z"/>
<path style="fill:#303030; stroke:none;" d="M188 202L189 203L188 202M323 202L324 203L323 202z"/>
<path style="fill:#6b6b6b; stroke:none;" d="M376 202L377 203L376 202M187 203L188 204L187 203M324 203L325 204L324 203M134 204L135 205L134 204z"/>
<path style="fill:#a0a0a0; stroke:none;" d="M186 204L187 205L186 204M325 204L326 205L325 204z"/>
<path style="fill:#6b6b6b; stroke:none;" d="M377 204L378 205L377 204z"/>
<path style="fill:#303030; stroke:none;" d="M133 206L134 207L133 206M185 206L186 207L185 206M326 206L327 207L326 206M378 206L379 207L378 206z"/>
<path style="fill:#a0a0a0; stroke:none;" d="M133 207L134 208L133 207z"/>
<path style="fill:#6b6b6b; stroke:none;" d="M184 207L185 208L184 207M327 207L328 208L327 207z"/>
<path style="fill:#a0a0a0; stroke:none;" d="M378 207L379 208L378 207M183 208L184 209L183 208M328 208L329 209L328 208z"/>
<path style="fill:#6b6b6b; stroke:none;" d="M132 209L133 210L132 209z"/>
<path style="fill:#303030; stroke:none;" d="M183 209L184 210L183 209M328 209L329 210L328 209z"/>
<path style="fill:#6b6b6b; stroke:none;" d="M379 209L380 210L379 209z"/>
<path style="fill:#a0a0a0; stroke:none;" d="M132 210L133 211L132 210M182 210L183 211L182 210M329 210L330 211L329 210M379 210L380 211L379 210z"/>
<path style="fill:#6b6b6b; stroke:none;" d="M131 212L132 213L131 212M181 212L182 213L181 212M330 212L331 213L330 212M380 212L381 213L380 212z"/>
<path style="fill:#a0a0a0; stroke:none;" d="M131 213L132 214L131 213M180 213L181 214L180 213M331 213L332 214L331 213M380 213L381 214L380 213z"/>
<path style="fill:#303030; stroke:none;" d="M130 214L131 215L130 214M180 214L181 215L180 214M331 214L332 215L331 214M381 214L382 215L381 214z"/>
<path style="fill:#6b6b6b; stroke:none;" d="M130 215L131 216L130 215z"/>
<path style="fill:#a0a0a0; stroke:none;" d="M179 215L180 216L179 215M332 215L333 216L332 215z"/>
<path style="fill:#6b6b6b; stroke:none;" d="M381 215L382 216L381 215z"/>
<path style="fill:#303030; stroke:none;" d="M179 216L180 217L179 216M332 216L333 217L332 216M129 217L130 218L129 217z"/>
<path style="fill:#a0a0a0; stroke:none;" d="M178 217L179 218L178 217M333 217L334 218L333 217z"/>
<path style="fill:#303030; stroke:none;" d="M382 217L383 218L382 217z"/>
<path style="fill:#6b6b6b; stroke:none;" d="M129 218L130 219L129 218z"/>
<path style="fill:#303030; stroke:none;" d="M178 218L179 219L178 218M333 218L334 219L333 218z"/>
<path style="fill:#6b6b6b; stroke:none;" d="M382 218L383 219L382 218z"/>
<path style="fill:#a0a0a0; stroke:none;" d="M129 219L130 220L129 219M177 219L178 220L177 219M334 219L335 220L334 219M382 219L383 220L382 219z"/>
<path style="fill:#303030; stroke:none;" d="M177 220L178 221L177 220M334 220L335 221L334 220M128 221L129 222L128 221z"/>
<path style="fill:#a0a0a0; stroke:none;" d="M176 221L177 222L176 221M335 221L336 222L335 221z"/>
<path style="fill:#303030; stroke:none;" d="M383 221L384 222L383 221z"/>
<path style="fill:#6b6b6b; stroke:none;" d="M128 222L129 223L128 222z"/>
<path style="fill:#303030; stroke:none;" d="M176 222L177 223L176 222M335 222L336 223L335 222z"/>
<path style="fill:#6b6b6b; stroke:none;" d="M383 222L384 223L383 222z"/>
<path style="fill:#a0a0a0; stroke:none;" d="M128 223L129 224L128 223M383 223L384 224L383 223M175 224L176 225L175 224M336 224L337 225L336 224z"/>
<path style="fill:#303030; stroke:none;" d="M127 225L128 226L127 225M175 225L176 226L175 225M336 225L337 226L336 225M384 225L385 226L384 225z"/>
<path style="fill:#6b6b6b; stroke:none;" d="M127 226L128 227L127 226z"/>
<path style="fill:#a0a0a0; stroke:none;" d="M174 226L175 227L174 226M337 226L338 227L337 226z"/>
<path style="fill:#6b6b6b; stroke:none;" d="M384 226L385 227L384 226z"/>
<path style="fill:#a0a0a0; stroke:none;" d="M127 227L128 228L127 227z"/>
<path style="fill:#6b6b6b; stroke:none;" d="M174 227L175 228L174 227M337 227L338 228L337 227z"/>
<path style="fill:#a0a0a0; stroke:none;" d="M384 227L385 228L384 227z"/>
<path style="fill:#303030; stroke:none;" d="M126 229L127 230L126 229z"/>
<path style="fill:#a0a0a0; stroke:none;" d="M173 229L174 230L173 229M338 229L339 230L338 229z"/>
<path style="fill:#303030; stroke:none;" d="M385 229L386 230L385 229z"/>
<path style="fill:#6b6b6b; stroke:none;" d="M126 230L127 231L126 230M173 230L174 231L173 230M338 230L339 231L338 230M385 230L386 231L385 230z"/>
<path style="fill:#a0a0a0; stroke:none;" d="M126.333 231.667L126.667 232.333L126.333 231.667M385.333 231.667L385.667 232.333L385.333 231.667M172 233L173 234L172 233M339 233L340 234L339 233z"/>
<path style="fill:#6b6b6b; stroke:none;" d="M172 234L173 235L172 234M339 234L340 235L339 234z"/>
<path style="fill:#303030; stroke:none;" d="M125 235L126 236L125 235M386 235L387 236L386 235z"/>
<path style="fill:#6b6b6b; stroke:none;" d="M125.333 236.667L125.667 237.333L125.333 236.667z"/>
<path style="fill:#a0a0a0; stroke:none;" d="M171.333 236.667L171.667 237.333L171.333 236.667M340.333 236.667L340.667 237.333L340.333 236.667z"/>
<path style="fill:#6b6b6b; stroke:none;" d="M386.333 236.667L386.667 237.333L386.333 236.667z"/>
<path style="fill:#a0a0a0; stroke:none;" d="M125.333 238.667L125.667 239.333L125.333 238.667z"/>
<path style="fill:#303030; stroke:none;" d="M171.333 238.667L171.667 239.333L171.333 238.667M340.333 238.667L340.667 239.333L340.333 238.667z"/>
<path style="fill:#a0a0a0; stroke:none;" d="M386.333 238.667L386.667 239.333L386.333 238.667M170.333 241.667L170.667 242.333L170.333 241.667M341.333 241.667L341.667 242.333L341.333 241.667z"/>
<path style="fill:#303030; stroke:none;" d="M124.333 242.667L124.667 243.333L124.333 242.667M387.333 242.667L387.667 243.333L387.333 242.667z"/>
<path style="fill:#6b6b6b; stroke:none;" d="M170.333 243.667L170.667 244.333L170.333 243.667M341.333 243.667L341.667 244.333L341.333 243.667M124 244L124 248L125 248L124 244M387 244L387 248L388 248L387 244z"/>
<path style="fill:#303030; stroke:none;" d="M170 245L171 246L170 245M341 245L342 246L341 245z"/>
<path style="fill:#a0a0a0; stroke:none;" d="M124 248L124 254L125 254L124 248M387 248L387 254L388 254L387 248M169 250L169 255L170 255L169 250M342 250L342 255L343 255L342 250z"/>
<path style="fill:#6b6b6b; stroke:none;" d="M169.333 255.667L169.667 256.333L169.333 255.667M342.333 255.667L342.667 256.333L342.333 255.667z"/>
<path style="fill:#a0a0a0; stroke:none;" d="M169 257L169 262L170 262L169 257M342 257L342 262L343 262L342 257M124 258L124 264L125 264L124 258M387 258L387 264L388 264L387 258z"/>
<path style="fill:#6b6b6b; stroke:none;" d="M124 264L124 268L125 268L124 264M387 264L387 268L388 268L387 264z"/>
<path style="fill:#303030; stroke:none;" d="M170 266L171 267L170 266M341 266L342 267L341 266z"/>
<path style="fill:#6b6b6b; stroke:none;" d="M170.333 267.667L170.667 268.333L170.333 267.667M341.333 267.667L341.667 268.333L341.333 267.667z"/>
<path style="fill:#303030; stroke:none;" d="M124.333 268.667L124.667 269.333L124.333 268.667M387.333 268.667L387.667 269.333L387.333 268.667z"/>
<path style="fill:#a0a0a0; stroke:none;" d="M170.333 269.667L170.667 270.333L170.333 269.667M341.333 269.667L341.667 270.333L341.333 269.667M125.333 272.667L125.667 273.333L125.333 272.667z"/>
<path style="fill:#303030; stroke:none;" d="M171.333 272.667L171.667 273.333L171.333 272.667M340.333 272.667L340.667 273.333L340.333 272.667z"/>
<path style="fill:#a0a0a0; stroke:none;" d="M386.333 272.667L386.667 273.333L386.333 272.667z"/>
<path style="fill:#6b6b6b; stroke:none;" d="M125.333 274.667L125.667 275.333L125.333 274.667z"/>
<path style="fill:#a0a0a0; stroke:none;" d="M171.333 274.667L171.667 275.333L171.333 274.667M340.333 274.667L340.667 275.333L340.333 274.667z"/>
<path style="fill:#6b6b6b; stroke:none;" d="M386.333 274.667L386.667 275.333L386.333 274.667z"/>
<path style="fill:#303030; stroke:none;" d="M125 276L126 277L125 276M386 276L387 277L386 276z"/>
<path style="fill:#6b6b6b; stroke:none;" d="M172 277L173 278L172 277M339 277L340 278L339 277z"/>
<path style="fill:#a0a0a0; stroke:none;" d="M172 278L173 279L172 278M339 278L340 279L339 278M126.333 279.667L126.667 280.333L126.333 279.667M385.333 279.667L385.667 280.333L385.333 279.667z"/>
<path style="fill:#6b6b6b; stroke:none;" d="M126 281L127 282L126 281M173 281L174 282L173 281M338 281L339 282L338 281M385 281L386 282L385 281z"/>
<path style="fill:#303030; stroke:none;" d="M126 282L127 283L126 282z"/>
<path style="fill:#a0a0a0; stroke:none;" d="M173 282L174 283L173 282M338 282L339 283L338 282z"/>
<path style="fill:#303030; stroke:none;" d="M385 282L386 283L385 282z"/>
<path style="fill:#a0a0a0; stroke:none;" d="M127 284L128 285L127 284z"/>
<path style="fill:#6b6b6b; stroke:none;" d="M174 284L175 285L174 284M337 284L338 285L337 284z"/>
<path style="fill:#a0a0a0; stroke:none;" d="M384 284L385 285L384 284z"/>
<path style="fill:#6b6b6b; stroke:none;" d="M127 285L128 286L127 285z"/>
<path style="fill:#a0a0a0; stroke:none;" d="M174 285L175 286L174 285M337 285L338 286L337 285z"/>
<path style="fill:#6b6b6b; stroke:none;" d="M384 285L385 286L384 285z"/>
<path style="fill:#303030; stroke:none;" d="M127 286L128 287L127 286M175 286L176 287L175 286M336 286L337 287L336 286M384 286L385 287L384 286z"/>
<path style="fill:#a0a0a0; stroke:none;" d="M175 287L176 288L175 287M336 287L337 288L336 287M128 288L129 289L128 288M383 288L384 289L383 288z"/>
<path style="fill:#6b6b6b; stroke:none;" d="M128 289L129 290L128 289z"/>
<path style="fill:#303030; stroke:none;" d="M176 289L177 290L176 289M335 289L336 290L335 289z"/>
<path style="fill:#6b6b6b; stroke:none;" d="M383 289L384 290L383 289z"/>
<path style="fill:#303030; stroke:none;" d="M128 290L129 291L128 290z"/>
<path style="fill:#a0a0a0; stroke:none;" d="M176 290L177 291L176 290M335 290L336 291L335 290z"/>
<path style="fill:#303030; stroke:none;" d="M383 290L384 291L383 290M177 291L178 292L177 291M334 291L335 292L334 291z"/>
<path style="fill:#a0a0a0; stroke:none;" d="M129 292L130 293L129 292M177 292L178 293L177 292M334 292L335 293L334 292M382 292L383 293L382 292z"/>
<path style="fill:#6b6b6b; stroke:none;" d="M129 293L130 294L129 293z"/>
<path style="fill:#303030; stroke:none;" d="M178 293L179 294L178 293M333 293L334 294L333 293z"/>
<path style="fill:#6b6b6b; stroke:none;" d="M382 293L383 294L382 293z"/>
<path style="fill:#303030; stroke:none;" d="M129 294L130 295L129 294z"/>
<path style="fill:#a0a0a0; stroke:none;" d="M178 294L179 295L178 294M333 294L334 295L333 294z"/>
<path style="fill:#303030; stroke:none;" d="M382 294L383 295L382 294M179 295L180 296L179 295M332 295L333 296L332 295z"/>
<path style="fill:#6b6b6b; stroke:none;" d="M130 296L131 297L130 296z"/>
<path style="fill:#a0a0a0; stroke:none;" d="M179 296L180 297L179 296M332 296L333 297L332 296z"/>
<path style="fill:#6b6b6b; stroke:none;" d="M381 296L382 297L381 296z"/>
<path style="fill:#303030; stroke:none;" d="M130 297L131 298L130 297M180 297L181 298L180 297M331 297L332 298L331 297M381 297L382 298L381 297z"/>
<path style="fill:#a0a0a0; stroke:none;" d="M131 298L132 299L131 298M180 298L181 299L180 298M331 298L332 299L331 298M380 298L381 299L380 298z"/>
<path style="fill:#6b6b6b; stroke:none;" d="M131 299L132 300L131 299M181 299L182 300L181 299M330 299L331 300L330 299M380 299L381 300L380 299z"/>
<path style="fill:#a0a0a0; stroke:none;" d="M132 301L133 302L132 301M182 301L183 302L182 301M329 301L330 302L329 301M379 301L380 302L379 301z"/>
<path style="fill:#6b6b6b; stroke:none;" d="M132 302L133 303L132 302z"/>
<path style="fill:#303030; stroke:none;" d="M183 302L184 303L183 302M328 302L329 303L328 302z"/>
<path style="fill:#6b6b6b; stroke:none;" d="M379 302L380 303L379 302z"/>
<path style="fill:#a0a0a0; stroke:none;" d="M183 303L184 304L183 303M328 303L329 304L328 303M133 304L134 305L133 304z"/>
<path style="fill:#6b6b6b; stroke:none;" d="M184 304L185 305L184 304M327 304L328 305L327 304z"/>
<path style="fill:#a0a0a0; stroke:none;" d="M378 304L379 305L378 304z"/>
<path style="fill:#303030; stroke:none;" d="M133 305L134 306L133 305M185 305L186 306L185 305M326 305L327 306L326 305M378 305L379 306L378 305z"/>
<path style="fill:#6b6b6b; stroke:none;" d="M134 307L135 308L134 307z"/>
<path style="fill:#a0a0a0; stroke:none;" d="M186 307L187 308L186 307M325 307L326 308L325 307z"/>
<path style="fill:#6b6b6b; stroke:none;" d="M377 307L378 308L377 307M187 308L188 309L187 308M324 308L325 309L324 308M135 309L136 310L135 309z"/>
<path style="fill:#303030; stroke:none;" d="M188 309L189 310L188 309M323 309L324 310L323 309z"/>
<path style="fill:#6b6b6b; stroke:none;" d="M376 309L377 310L376 309M136 311L137 312L136 311z"/>
<path style="fill:#a0a0a0; stroke:none;" d="M189 311L190 312L189 311M322 311L323 312L322 311z"/>
<path style="fill:#6b6b6b; stroke:none;" d="M375 311L376 312L375 311z"/>
<path style="fill:#a0a0a0; stroke:none;" d="M190 312L191 313L190 312M321 312L322 313L321 312M137 313L138 314L137 313M191 313L192 314L191 313M320 313L321 314L320 313M374 313L375 314L374 313z"/>
<path style="fill:#6b6b6b; stroke:none;" d="M192 314L193 315L192 314M319 314L320 315L319 314z"/>
<path style="fill:#a0a0a0; stroke:none;" d="M138 315L139 316L138 315z"/>
<path style="fill:#6b6b6b; stroke:none;" d="M193 315L194 316L193 315M318 315L319 316L318 315z"/>
<path style="fill:#a0a0a0; stroke:none;" d="M373 315L374 316L373 315z"/>
<path style="fill:#303030; stroke:none;" d="M138 316L139 317L138 316z"/>
<path style="fill:#6b6b6b; stroke:none;" d="M194 316L195 317L194 316M317 316L318 317L317 316z"/>
<path style="fill:#303030; stroke:none;" d="M373 316L374 317L373 316z"/>
<path style="fill:#a0a0a0; stroke:none;" d="M139 317L140 318L139 317z"/>
<path style="fill:#6b6b6b; stroke:none;" d="M195 317L196 318L195 317M316 317L317 318L316 317z"/>
<path style="fill:#a0a0a0; stroke:none;" d="M372 317L373 318L372 317z"/>
<path style="fill:#303030; stroke:none;" d="M139 318L140 319L139 318z"/>
<path style="fill:#6b6b6b; stroke:none;" d="M196 318L197 319L196 318M315 318L316 319L315 318z"/>
<path style="fill:#303030; stroke:none;" d="M372 318L373 319L372 318z"/>
<path style="fill:#a0a0a0; stroke:none;" d="M140 319L141 320L140 319z"/>
<path style="fill:#6b6b6b; stroke:none;" d="M197 319L198 320L197 319M314 319L315 320L314 319z"/>
<path style="fill:#a0a0a0; stroke:none;" d="M371 319L372 320L371 319M198 320L199 321L198 320M313 320L314 321L313 320z"/>
<path style="fill:#6b6b6b; stroke:none;" d="M141 321L142 322L141 321z"/>
<path style="fill:#a0a0a0; stroke:none;" d="M199 321L200 322L199 321M312 321L313 322L312 321z"/>
<path style="fill:#6b6b6b; stroke:none;" d="M370 321L371 322L370 321z"/>
<path style="fill:#a0a0a0; stroke:none;" d="M142 322L143 323L142 322M200 322L201 323L200 322M311 322L312 323L311 322M369 322L370 323L369 322z"/>
<path style="fill:#303030; stroke:none;" d="M142 323L143 324L142 323M202 323L203 324L202 323M309 323L310 324L309 323M369 323L370 324L369 323z"/>
<path style="fill:#a0a0a0; stroke:none;" d="M143 324L144 325L143 324z"/>
<path style="fill:#6b6b6b; stroke:none;" d="M203 324L204 325L203 324M308 324L309 325L308 324z"/>
<path style="fill:#a0a0a0; stroke:none;" d="M368 324L369 325L368 324M204 325L205 326L204 325M307 325L308 326L307 325z"/>
<path style="fill:#6b6b6b; stroke:none;" d="M144 326L145 327L144 326z"/>
<path style="fill:#303030; stroke:none;" d="M206 326L207 327L206 326M305 326L306 327L305 326z"/>
<path style="fill:#6b6b6b; stroke:none;" d="M367 326L368 327L367 326z"/>
<path style="fill:#a0a0a0; stroke:none;" d="M145 327L146 328L145 327z"/>
<path style="fill:#6b6b6b; stroke:none;" d="M207 327L208 328L207 327M304 327L305 328L304 327z"/>
<path style="fill:#a0a0a0; stroke:none;" d="M366 327L367 328L366 327z"/>
<path style="fill:#303030; stroke:none;" d="M145 328L146 329L145 328z"/>
<path style="fill:#a0a0a0; stroke:none;" d="M208 328L209 329L208 328z"/>
<path style="fill:#303030; stroke:none;" d="M209 328L210 329L209 328M302 328L303 329L302 328z"/>
<path style="fill:#a0a0a0; stroke:none;" d="M303 328L304 329L303 328z"/>
<path style="fill:#303030; stroke:none;" d="M366 328L367 329L366 328z"/>
<path style="fill:#6b6b6b; stroke:none;" d="M146 329L147 330L146 329z"/>
<path style="fill:#a0a0a0; stroke:none;" d="M210 329L211 330L210 329M301 329L302 330L301 329z"/>
<path style="fill:#6b6b6b; stroke:none;" d="M365 329L366 330L365 329z"/>
<path style="fill:#a0a0a0; stroke:none;" d="M147 330L148 331L147 330z"/>
<path style="fill:#6b6b6b; stroke:none;" d="M212 330L213 331L212 330M299 330L300 331L299 330z"/>
<path style="fill:#a0a0a0; stroke:none;" d="M364 330L365 331L364 330z"/>
<path style="fill:#303030; stroke:none;" d="M147 331L148 332L147 331z"/>
<path style="fill:#a0a0a0; stroke:none;" d="M213 331L214 332L213 331z"/>
<path style="fill:#303030; stroke:none;" d="M214 331L215 332L214 331M297 331L298 332L297 331z"/>
<path style="fill:#a0a0a0; stroke:none;" d="M298 331L299 332L298 331z"/>
<path style="fill:#303030; stroke:none;" d="M364 331L365 332L364 331M148 332L149 333L148 332z"/>
<path style="fill:#a0a0a0; stroke:none;" d="M215 332L216 333L215 332z"/>
<path style="fill:#303030; stroke:none;" d="M216 332L217 333L216 332M295 332L296 333L295 332z"/>
<path style="fill:#a0a0a0; stroke:none;" d="M296 332L297 333L296 332z"/>
<path style="fill:#303030; stroke:none;" d="M363 332L364 333L363 332z"/>
<path style="fill:#a0a0a0; stroke:none;" d="M149 333L150 334L149 333M217 333L218 334L217 333z"/>
<path style="fill:#303030; stroke:none;" d="M218 333L219 334L218 333M293 333L294 334L293 333z"/>
<path style="fill:#a0a0a0; stroke:none;" d="M294 333L295 334L294 333M362 333L363 334L362 333M150 334L151 335L150 334M219 334L220 335L219 334z"/>
<path style="fill:#303030; stroke:none;" d="M220 334L221 335L220 334M291 334L292 335L291 334z"/>
<path style="fill:#a0a0a0; stroke:none;" d="M292 334L293 335L292 334M361 334L362 335L361 334z"/>
<path style="fill:#303030; stroke:none;" d="M150 335L151 336L150 335z"/>
<path style="fill:#a0a0a0; stroke:none;" d="M221 335L222 336L221 335z"/>
<path style="fill:#303030; stroke:none;" d="M222 335L223 336L222 335M289 335L290 336L289 335z"/>
<path style="fill:#a0a0a0; stroke:none;" d="M290 335L291 336L290 335z"/>
<path style="fill:#303030; stroke:none;" d="M361 335L362 336L361 335z"/>
<path style="fill:#6b6b6b; stroke:none;" d="M151 336L152 337L151 336z"/>
<path style="fill:#a0a0a0; stroke:none;" d="M224 336L225 337L224 336z"/>
<path style="fill:#303030; stroke:none;" d="M225 336L226 337L225 336M286 336L287 337L286 336z"/>
<path style="fill:#a0a0a0; stroke:none;" d="M287 336L288 337L287 336z"/>
<path style="fill:#303030; stroke:none;" d="M360 336L361 337L360 336z"/>
<path style="fill:#a0a0a0; stroke:none;" d="M152 337L153 338L152 337M226 337L227 338L226 337z"/>
<path style="fill:#6b6b6b; stroke:none;" d="M227 337L228 338L227 337M284 337L285 338L284 337z"/>
<path style="fill:#a0a0a0; stroke:none;" d="M285 337L286 338L285 337M359 337L360 338L359 337M153 338L154 339L153 338M229 338L230 339L229 338z"/>
<path style="fill:#6b6b6b; stroke:none;" d="M230 338L231 339L230 338M281 338L282 339L281 338z"/>
<path style="fill:#a0a0a0; stroke:none;" d="M282 338L283 339L282 338M358 338L359 339L358 338z"/>
<path style="fill:#303030; stroke:none;" d="M153 339L154 340L153 339z"/>
<path style="fill:#a0a0a0; stroke:none;" d="M233 339L234 340L233 339z"/>
<path style="fill:#6b6b6b; stroke:none;" d="M234 339L235 340L234 339M277 339L278 340L277 339z"/>
<path style="fill:#a0a0a0; stroke:none;" d="M278 339L279 340L278 339z"/>
<path style="fill:#303030; stroke:none;" d="M358 339L359 340L358 339M154 340L155 341L154 340z"/>
<path style="fill:#a0a0a0; stroke:none;" d="M236.667 340.333L237.333 340.667L236.667 340.333z"/>
<path style="fill:#303030; stroke:none;" d="M238.667 340.333L239.333 340.667L238.667 340.333M272.667 340.333L273.333 340.667L272.667 340.333z"/>
<path style="fill:#a0a0a0; stroke:none;" d="M274.667 340.333L275.333 340.667L274.667 340.333z"/>
<path style="fill:#303030; stroke:none;" d="M357 340L358 341L357 340z"/>
<path style="fill:#6b6b6b; stroke:none;" d="M155 341L156 342L155 341z"/>
<path style="fill:#a0a0a0; stroke:none;" d="M241.667 341.333L242.333 341.667L241.667 341.333z"/>
<path style="fill:#6b6b6b; stroke:none;" d="M243.667 341.333L244.333 341.667L243.667 341.333z"/>
<path style="fill:#303030; stroke:none;" d="M245 341L246 342L245 341M266 341L267 342L266 341z"/>
<path style="fill:#6b6b6b; stroke:none;" d="M267.667 341.333L268.333 341.667L267.667 341.333z"/>
<path style="fill:#a0a0a0; stroke:none;" d="M269.667 341.333L270.333 341.667L269.667 341.333z"/>
<path style="fill:#303030; stroke:none;" d="M356 341L357 342L356 341z"/>
<path style="fill:#6b6b6b; stroke:none;" d="M156 342L157 343L156 342z"/>
<path style="fill:#a0a0a0; stroke:none;" d="M250 342L250 343L255 343L250 342z"/>
<path style="fill:#6b6b6b; stroke:none;" d="M255.667 342.333L256.333 342.667L255.667 342.333z"/>
<path style="fill:#a0a0a0; stroke:none;" d="M257 342L257 343L262 343L257 342z"/>
<path style="fill:#6b6b6b; stroke:none;" d="M355 342L356 343L355 342M157 343L158 344L157 343M354 343L355 344L354 343z"/>
<path style="fill:#a0a0a0; stroke:none;" d="M158 344L159 345L158 344M353 344L354 345L353 344M159 345L160 346L159 345M352 345L353 346L352 345M160 346L161 347L160 346M351 346L352 347L351 346M161 347L162 348L161 347M350 347L351 348L350 347z"/>
<path style="fill:#303030; stroke:none;" d="M161 348L162 349L161 348M350 348L351 349L350 348M162 349L163 350L162 349M349 349L350 350L349 349M163 350L164 351L163 350z"/>
<path style="fill:#a0a0a0; stroke:none;" d="M164 350L165 351L164 350M347 350L348 351L347 350z"/>
<path style="fill:#303030; stroke:none;" d="M348 350L349 351L348 350z"/>
<path style="fill:#a0a0a0; stroke:none;" d="M165 351L166 352L165 351M346 351L347 352L346 351M166 352L167 353L166 352M345 352L346 353L345 352M167 353L168 354L167 353M344 353L345 354L344 353z"/>
<path style="fill:#6b6b6b; stroke:none;" d="M168 354L169 355L168 354M343 354L344 355L343 354M169 355L170 356L169 355M342 355L343 356L342 355z"/>
<path style="fill:#303030; stroke:none;" d="M170 356L171 357L170 356M341 356L342 357L341 356M171 357L172 358L171 357M340 357L341 358L340 357M172 358L173 359L172 358z"/>
<path style="fill:#a0a0a0; stroke:none;" d="M173 358L174 359L173 358M338 358L339 359L338 358z"/>
<path style="fill:#303030; stroke:none;" d="M339 358L340 359L339 358z"/>
<path style="fill:#a0a0a0; stroke:none;" d="M174 359L175 360L174 359M337 359L338 360L337 359z"/>
<path style="fill:#303030; stroke:none;" d="M175 360L176 361L175 360M336 360L337 361L336 360M176 361L177 362L176 361z"/>
<path style="fill:#a0a0a0; stroke:none;" d="M177 361L178 362L177 361M334 361L335 362L334 361z"/>
<path style="fill:#303030; stroke:none;" d="M335 361L336 362L335 361z"/>
<path style="fill:#a0a0a0; stroke:none;" d="M178 362L179 363L178 362M333 362L334 363L333 362z"/>
<path style="fill:#303030; stroke:none;" d="M179 363L180 364L179 363M332 363L333 364L332 363M180 364L181 365L180 364z"/>
<path style="fill:#a0a0a0; stroke:none;" d="M181 364L182 365L181 364M330 364L331 365L330 364z"/>
<path style="fill:#303030; stroke:none;" d="M331 364L332 365L331 364z"/>
<path style="fill:#6b6b6b; stroke:none;" d="M182 365L183 366L182 365M329 365L330 366L329 365z"/>
<path style="fill:#303030; stroke:none;" d="M183 366L184 367L183 366z"/>
<path style="fill:#a0a0a0; stroke:none;" d="M184 366L185 367L184 366M327 366L328 367L327 366z"/>
<path style="fill:#303030; stroke:none;" d="M328 366L329 367L328 366z"/>
<path style="fill:#6b6b6b; stroke:none;" d="M185 367L186 368L185 367M326 367L327 368L326 367z"/>
<path style="fill:#a0a0a0; stroke:none;" d="M187 368L188 369L187 368M324 368L325 369L324 368z"/>
<path style="fill:#303030; stroke:none;" d="M188 369L189 370L188 369z"/>
<path style="fill:#a0a0a0; stroke:none;" d="M189 369L190 370L189 369M322 369L323 370L322 369z"/>
<path style="fill:#303030; stroke:none;" d="M323 369L324 370L323 369z"/>
<path style="fill:#6b6b6b; stroke:none;" d="M190 370L191 371L190 370M321 370L322 371L321 370z"/>
<path style="fill:#a0a0a0; stroke:none;" d="M192 371L193 372L192 371M319 371L320 372L319 371M45 372L45 378L46 378L45 372z"/>
<path style="fill:#303030; stroke:none;" d="M193 372L194 373L193 372z"/>
<path style="fill:#a0a0a0; stroke:none;" d="M194 372L195 373L194 372M317 372L318 373L317 372z"/>
<path style="fill:#303030; stroke:none;" d="M318 372L319 373L318 372z"/>
<path style="fill:#a0a0a0; stroke:none;" d="M466 372L466 378L467 378L466 372z"/>
<path style="fill:#303030; stroke:none;" d="M195 373L196 374L195 373z"/>
<path style="fill:#a0a0a0; stroke:none;" d="M196 373L197 374L196 373M315 373L316 374L315 373z"/>
<path style="fill:#303030; stroke:none;" d="M316 373L317 374L316 373z"/>
<path style="fill:#a0a0a0; stroke:none;" d="M0 374L0 380L1 380L0 374M198 374L199 375L198 374M313 374L314 375L313 374M511 374L511 380L512 380L511 374z"/>
<path style="fill:#6b6b6b; stroke:none;" d="M200 375L201 376L200 375M311 375L312 376L311 375M202 376L203 377L202 376M309 376L310 377L309 376M204 377L205 378L204 377M307 377L308 378L307 377z"/>
<path style="fill:#303030; stroke:none;" d="M206 378L207 379L206 378z"/>
<path style="fill:#a0a0a0; stroke:none;" d="M207 378L208 379L207 378M304 378L305 379L304 378z"/>
<path style="fill:#303030; stroke:none;" d="M305 378L306 379L305 378z"/>
<path style="fill:#6b6b6b; stroke:none;" d="M209 379L210 380L209 379z"/>
<path style="fill:#a0a0a0; stroke:none;" d="M210 379L211 380L210 379M301 379L302 380L301 379z"/>
<path style="fill:#6b6b6b; stroke:none;" d="M302 379L303 380L302 379M0 380L0 384L1 384L0 380M212 380L213 381L212 380z"/>
<path style="fill:#a0a0a0; stroke:none;" d="M213 380L214 381L213 380M298 380L299 381L298 380z"/>
<path style="fill:#6b6b6b; stroke:none;" d="M299 380L300 381L299 380M511 380L511 384L512 384L511 380z"/>
<path style="fill:#303030; stroke:none;" d="M214 381L215 382L214 381z"/>
<path style="fill:#6b6b6b; stroke:none;" d="M215 381L216 382L215 381M296 381L297 382L296 381z"/>
<path style="fill:#303030; stroke:none;" d="M297 381L298 382L297 381M46 382L47 383L46 382M217 382L218 383L217 382z"/>
<path style="fill:#6b6b6b; stroke:none;" d="M218 382L219 383L218 382z"/>
<path style="fill:#a0a0a0; stroke:none;" d="M219 382L220 383L219 382M292 382L293 383L292 382z"/>
<path style="fill:#6b6b6b; stroke:none;" d="M293 382L294 383L293 382z"/>
<path style="fill:#303030; stroke:none;" d="M294 382L295 383L294 382M465 382L466 383L465 382z"/>
<path style="fill:#6b6b6b; stroke:none;" d="M46 383L47 384L46 383z"/>
<path style="fill:#303030; stroke:none;" d="M221 383L222 384L221 383z"/>
<path style="fill:#6b6b6b; stroke:none;" d="M222 383L223 384L222 383z"/>
<path style="fill:#a0a0a0; stroke:none;" d="M223 383L224 384L223 383M288 383L289 384L288 383z"/>
<path style="fill:#6b6b6b; stroke:none;" d="M289 383L290 384L289 383z"/>
<path style="fill:#303030; stroke:none;" d="M290 383L291 384L290 383z"/>
<path style="fill:#6b6b6b; stroke:none;" d="M465 383L466 384L465 383z"/>
<path style="fill:#303030; stroke:none;" d="M0.333333 384.667L0.666667 385.333L0.333333 384.667z"/>
<path style="fill:#a0a0a0; stroke:none;" d="M46.3333 384.667L46.6667 385.333L46.3333 384.667z"/>
<path style="fill:#303030; stroke:none;" d="M225 384L226 385L225 384z"/>
<path style="fill:#6b6b6b; stroke:none;" d="M226 384L227 385L226 384z"/>
<path style="fill:#a0a0a0; stroke:none;" d="M227 384L228 385L227 384M284 384L285 385L284 384z"/>
<path style="fill:#6b6b6b; stroke:none;" d="M285 384L286 385L285 384z"/>
<path style="fill:#303030; stroke:none;" d="M286 384L287 385L286 384z"/>
<path style="fill:#a0a0a0; stroke:none;" d="M465.333 384.667L465.667 385.333L465.333 384.667z"/>
<path style="fill:#303030; stroke:none;" d="M511.333 384.667L511.667 385.333L511.333 384.667M229 385L230 386L229 385z"/>
<path style="fill:#6b6b6b; stroke:none;" d="M230 385L231 386L230 385z"/>
<path style="fill:#a0a0a0; stroke:none;" d="M231.667 385.333L232.333 385.667L231.667 385.333M279.667 385.333L280.333 385.667L279.667 385.333z"/>
<path style="fill:#6b6b6b; stroke:none;" d="M281 385L282 386L281 385z"/>
<path style="fill:#303030; stroke:none;" d="M282 385L283 386L282 385z"/>
<path style="fill:#010101; stroke:none;" d="M0 386L0 512L126 512L126 511C80.5153 510.061 35.064 474.286 15.3704 435C7.45129 419.202 6.71224 401.56 0 386z"/>
<path style="fill:#303030; stroke:none;" d="M235 386L236 387L235 386z"/>
<path style="fill:#6b6b6b; stroke:none;" d="M236.667 386.333L237.333 386.667L236.667 386.333z"/>
<path style="fill:#a0a0a0; stroke:none;" d="M238.667 386.333L239.333 386.667L238.667 386.333M272.667 386.333L273.333 386.667L272.667 386.333z"/>
<path style="fill:#6b6b6b; stroke:none;" d="M274.667 386.333L275.333 386.667L274.667 386.333z"/>
<path style="fill:#303030; stroke:none;" d="M276 386L277 387L276 386z"/>
<path style="fill:#010101; stroke:none;" d="M511 386C509.741 446.985 446.985 509.741 386 511L386 512L512 512L512 424C512 413.104 515.208 396.027 511 386z"/>
<path style="fill:#303030; stroke:none;" d="M242.667 387.333L243.333 387.667L242.667 387.333z"/>
<path style="fill:#6b6b6b; stroke:none;" d="M244 387L244 388L248 388L244 387z"/>
<path style="fill:#a0a0a0; stroke:none;" d="M248 387L248 388L254 388L248 387M258 387L258 388L264 388L258 387z"/>
<path style="fill:#6b6b6b; stroke:none;" d="M264 387L264 388L268 388L264 387z"/>
<path style="fill:#303030; stroke:none;" d="M268.667 387.333L269.333 387.667L268.667 387.333z"/>
<path style="fill:#a0a0a0; stroke:none;" d="M1.33333 388.667L1.66667 389.333L1.33333 388.667z"/>
<path style="fill:#303030; stroke:none;" d="M47.3333 388.667L47.6667 389.333L47.3333 388.667M464.333 388.667L464.667 389.333L464.333 388.667z"/>
<path style="fill:#a0a0a0; stroke:none;" d="M510.333 388.667L510.667 389.333L510.333 388.667z"/>
<path style="fill:#6b6b6b; stroke:none;" d="M1 390L2 391L1 390M47 390L48 391L47 390M464 390L465 391L464 390M510 390L511 391L510 390z"/>
<path style="fill:#303030; stroke:none;" d="M1.33333 391.667L1.66667 392.333L1.33333 391.667z"/>
<path style="fill:#a0a0a0; stroke:none;" d="M47 391L48 392L47 391M464 391L465 392L464 391z"/>
<path style="fill:#303030; stroke:none;" d="M510.333 391.667L510.667 392.333L510.333 391.667M48 393L49 394L48 393M463 393L464 394L463 393z"/>
<path style="fill:#a0a0a0; stroke:none;" d="M48.3333 394.667L48.6667 395.333L48.3333 394.667M463.333 394.667L463.667 395.333L463.333 394.667M2.33333 395.667L2.66667 396.333L2.33333 395.667M509.333 395.667L509.667 396.333L509.333 395.667z"/>
<path style="fill:#6b6b6b; stroke:none;" d="M2 397L3 398L2 397M49 397L50 398L49 397M462 397L463 398L462 397M509 397L510 398L509 397z"/>
<path style="fill:#303030; stroke:none;" d="M2 398L3 399L2 398z"/>
<path style="fill:#a0a0a0; stroke:none;" d="M49 398L50 399L49 398M462 398L463 399L462 398z"/>
<path style="fill:#303030; stroke:none;" d="M509 398L510 399L509 398z"/>
<path style="fill:#a0a0a0; stroke:none;" d="M3 400L4 401L3 400z"/>
<path style="fill:#303030; stroke:none;" d="M50 400L51 401L50 400M461 400L462 401L461 400z"/>
<path style="fill:#a0a0a0; stroke:none;" d="M508 400L509 401L508 400z"/>
<path style="fill:#6b6b6b; stroke:none;" d="M3 401L4 402L3 401z"/>
<path style="fill:#a0a0a0; stroke:none;" d="M50 401L51 402L50 401M461 401L462 402L461 401z"/>
<path style="fill:#6b6b6b; stroke:none;" d="M508 401L509 402L508 401z"/>
<path style="fill:#303030; stroke:none;" d="M3 402L4 403L3 402M508 402L509 403L508 402z"/>
<path style="fill:#6b6b6b; stroke:none;" d="M51 403L52 404L51 403M460 403L461 404L460 403z"/>
<path style="fill:#a0a0a0; stroke:none;" d="M4 404L5 405L4 404M51 404L52 405L51 404M460 404L461 405L460 404M507 404L508 405L507 404z"/>
<path style="fill:#6b6b6b; stroke:none;" d="M4 405L5 406L4 405M507 405L508 406L507 405z"/>
<path style="fill:#303030; stroke:none;" d="M4 406L5 407L4 406z"/>
<path style="fill:#6b6b6b; stroke:none;" d="M52 406L53 407L52 406M459 406L460 407L459 406z"/>
<path style="fill:#303030; stroke:none;" d="M507 406L508 407L507 406z"/>
<path style="fill:#a0a0a0; stroke:none;" d="M52 407L53 408L52 407M459 407L460 408L459 407M5 408L6 409L5 408z"/>
<path style="fill:#303030; stroke:none;" d="M53 408L54 409L53 408M458 408L459 409L458 408z"/>
<path style="fill:#a0a0a0; stroke:none;" d="M506 408L507 409L506 408z"/>
<path style="fill:#6b6b6b; stroke:none;" d="M5 409L6 410L5 409z"/>
<path style="fill:#a0a0a0; stroke:none;" d="M53 409L54 410L53 409M458 409L459 410L458 409z"/>
<path style="fill:#6b6b6b; stroke:none;" d="M506 409L507 410L506 409z"/>
<path style="fill:#303030; stroke:none;" d="M5 410L6 411L5 410M54 410L55 411L54 410M457 410L458 411L457 410M506 410L507 411L506 410z"/>
<path style="fill:#a0a0a0; stroke:none;" d="M54 411L55 412L54 411M457 411L458 412L457 411M6 412L7 413L6 412z"/>
<path style="fill:#303030; stroke:none;" d="M55 412L56 413L55 412M456 412L457 413L456 412z"/>
<path style="fill:#a0a0a0; stroke:none;" d="M505 412L506 413L505 412z"/>
<path style="fill:#6b6b6b; stroke:none;" d="M6 413L7 414L6 413z"/>
<path style="fill:#a0a0a0; stroke:none;" d="M55 413L56 414L55 413M456 413L457 414L456 413z"/>
<path style="fill:#6b6b6b; stroke:none;" d="M505 413L506 414L505 413z"/>
<path style="fill:#303030; stroke:none;" d="M56 414L57 415L56 414M455 414L456 415L455 414z"/>
<path style="fill:#a0a0a0; stroke:none;" d="M7 415L8 416L7 415M56 415L57 416L56 415M455 415L456 416L455 415M504 415L505 416L504 415z"/>
<path style="fill:#303030; stroke:none;" d="M7 416L8 417L7 416M57 416L58 417L57 416M454 416L455 417L454 416M504 416L505 417L504 416z"/>
<path style="fill:#a0a0a0; stroke:none;" d="M57 417L58 418L57 417M454 417L455 418L454 417z"/>
<path style="fill:#6b6b6b; stroke:none;" d="M8 418L9 419L8 418z"/>
<path style="fill:#303030; stroke:none;" d="M58 418L59 419L58 418M453 418L454 419L453 418z"/>
<path style="fill:#6b6b6b; stroke:none;" d="M503 418L504 419L503 418z"/>
<path style="fill:#303030; stroke:none;" d="M8 419L9 420L8 419M503 419L504 420L503 419z"/>
<path style="fill:#a0a0a0; stroke:none;" d="M9 420L10 421L9 420z"/>
<path style="fill:#6b6b6b; stroke:none;" d="M59 420L60 421L59 420M452 420L453 421L452 420z"/>
<path style="fill:#a0a0a0; stroke:none;" d="M502 420L503 421L502 420z"/>
<path style="fill:#6b6b6b; stroke:none;" d="M9 421L10 422L9 421z"/>
<path style="fill:#303030; stroke:none;" d="M60 421L61 422L60 421M451 421L452 422L451 421z"/>
<path style="fill:#6b6b6b; stroke:none;" d="M502 421L503 422L502 421z"/>
<path style="fill:#a0a0a0; stroke:none;" d="M60 422L61 423L60 422M451 422L452 423L451 422M10 423L11 424L10 423z"/>
<path style="fill:#6b6b6b; stroke:none;" d="M61 423L62 424L61 423M450 423L451 424L450 423z"/>
<path style="fill:#a0a0a0; stroke:none;" d="M501 423L502 424L501 423z"/>
<path style="fill:#303030; stroke:none;" d="M10 424L11 425L10 424M62 424L63 425L62 424M449 424L450 425L449 424M501 424L502 425L501 424z"/>
<path style="fill:#a0a0a0; stroke:none;" d="M62 425L63 426L62 425M449 425L450 426L449 425z"/>
<path style="fill:#6b6b6b; stroke:none;" d="M11 426L12 427L11 426M63 426L64 427L63 426M448 426L449 427L448 426M500 426L501 427L500 426z"/>
<path style="fill:#303030; stroke:none;" d="M64 427L65 428L64 427M447 427L448 428L447 427z"/>
<path style="fill:#6b6b6b; stroke:none;" d="M12 428L13 429L12 428z"/>
<path style="fill:#303030; stroke:none;" d="M65 428L66 429L65 428M446 428L447 429L446 428z"/>
<path style="fill:#6b6b6b; stroke:none;" d="M499 428L500 429L499 428z"/>
<path style="fill:#a0a0a0; stroke:none;" d="M65 429L66 430L65 429M446 429L447 430L446 429M13 430L14 431L13 430z"/>
<path style="fill:#6b6b6b; stroke:none;" d="M66 430L67 431L66 430M445 430L446 431L445 430z"/>
<path style="fill:#a0a0a0; stroke:none;" d="M498 430L499 431L498 430z"/>
<path style="fill:#303030; stroke:none;" d="M67 431L68 432L67 431M444 431L445 432L444 431z"/>
<path style="fill:#a0a0a0; stroke:none;" d="M14 432L15 433L14 432z"/>
<path style="fill:#303030; stroke:none;" d="M68 432L69 433L68 432M443 432L444 433L443 432z"/>
<path style="fill:#a0a0a0; stroke:none;" d="M497 432L498 433L497 432z"/>
<path style="fill:#303030; stroke:none;" d="M14 433L15 434L14 433M69 433L70 434L69 433M442 433L443 434L442 433M497 433L498 434L497 433z"/>
<path style="fill:#a0a0a0; stroke:none;" d="M15 434L16 435L15 434z"/>
<path style="fill:#303030; stroke:none;" d="M70 434L71 435L70 434M441 434L442 435L441 434z"/>
<path style="fill:#a0a0a0; stroke:none;" d="M496 434L497 435L496 434z"/>
<path style="fill:#303030; stroke:none;" d="M15 435L16 436L15 435z"/>
<path style="fill:#a0a0a0; stroke:none;" d="M70 435L71 436L70 435M441 435L442 436L441 435z"/>
<path style="fill:#303030; stroke:none;" d="M496 435L497 436L496 435z"/>
<path style="fill:#a0a0a0; stroke:none;" d="M16 436L17 437L16 436M71 436L72 437L71 436M440 436L441 437L440 436M495 436L496 437L495 436z"/>
<path style="fill:#303030; stroke:none;" d="M16 437L17 438L16 437z"/>
<path style="fill:#a0a0a0; stroke:none;" d="M72 437L73 438L72 437M439 437L440 438L439 437z"/>
<path style="fill:#303030; stroke:none;" d="M495 437L496 438L495 437z"/>
<path style="fill:#a0a0a0; stroke:none;" d="M17 438L18 439L17 438M73 438L74 439L73 438M438 438L439 439L438 438M494 438L495 439L494 438M74 439L75 440L74 439M437 439L438 440L437 439z"/>
<path style="fill:#6b6b6b; stroke:none;" d="M18 440L19 441L18 440z"/>
<path style="fill:#a0a0a0; stroke:none;" d="M75 440L76 441L75 440M436 440L437 441L436 440z"/>
<path style="fill:#6b6b6b; stroke:none;" d="M493 440L494 441L493 440z"/>
<path style="fill:#a0a0a0; stroke:none;" d="M19 441L20 442L19 441M76 441L77 442L76 441z"/>
<path style="fill:#303030; stroke:none;" d="M77 441L78 442L77 441M434 441L435 442L434 441z"/>
<path style="fill:#a0a0a0; stroke:none;" d="M435 441L436 442L435 441M492 441L493 442L492 441z"/>
<path style="fill:#303030; stroke:none;" d="M19 442L20 443L19 442M78 442L79 443L78 442M433 442L434 443L433 442M492 442L493 443L492 442z"/>
<path style="fill:#a0a0a0; stroke:none;" d="M20 443L21 444L20 443z"/>
<path style="fill:#303030; stroke:none;" d="M79 443L80 444L79 443M432 443L433 444L432 443z"/>
<path style="fill:#a0a0a0; stroke:none;" d="M491 443L492 444L491 443z"/>
<path style="fill:#303030; stroke:none;" d="M80 444L81 445L80 444M431 444L432 445L431 444z"/>
<path style="fill:#6b6b6b; stroke:none;" d="M21 445L22 446L21 445M81 445L82 446L81 445M430 445L431 446L430 445M490 445L491 446L490 445z"/>
<path style="fill:#a0a0a0; stroke:none;" d="M22 446L23 447L22 446M82 446L83 447L82 446z"/>
<path style="fill:#303030; stroke:none;" d="M83 446L84 447L83 446M428 446L429 447L428 446z"/>
<path style="fill:#a0a0a0; stroke:none;" d="M429 446L430 447L429 446M489 446L490 447L489 446z"/>
<path style="fill:#303030; stroke:none;" d="M22 447L23 448L22 447M84 447L85 448L84 447M427 447L428 448L427 447M489 447L490 448L489 447z"/>
<path style="fill:#a0a0a0; stroke:none;" d="M23 448L24 449L23 448z"/>
<path style="fill:#6b6b6b; stroke:none;" d="M85 448L86 449L85 448M426 448L427 449L426 448z"/>
<path style="fill:#a0a0a0; stroke:none;" d="M488 448L489 449L488 448M86 449L87 450L86 449z"/>
<path style="fill:#303030; stroke:none;" d="M87 449L88 450L87 449M424 449L425 450L424 449z"/>
<path style="fill:#a0a0a0; stroke:none;" d="M425 449L426 450L425 449z"/>
<path style="fill:#303030; stroke:none;" d="M24 450L25 451L24 450z"/>
<path style="fill:#6b6b6b; stroke:none;" d="M88 450L89 451L88 450M423 450L424 451L423 450z"/>
<path style="fill:#303030; stroke:none;" d="M487 450L488 451L487 450z"/>
<path style="fill:#6b6b6b; stroke:none;" d="M25 451L26 452L25 451z"/>
<path style="fill:#a0a0a0; stroke:none;" d="M89 451L90 452L89 451z"/>
<path style="fill:#303030; stroke:none;" d="M90 451L91 452L90 451M421 451L422 452L421 451z"/>
<path style="fill:#a0a0a0; stroke:none;" d="M422 451L423 452L422 451z"/>
<path style="fill:#6b6b6b; stroke:none;" d="M486 451L487 452L486 451z"/>
<path style="fill:#a0a0a0; stroke:none;" d="M26 452L27 453L26 452z"/>
<path style="fill:#6b6b6b; stroke:none;" d="M91 452L92 453L91 452M420 452L421 453L420 452z"/>
<path style="fill:#a0a0a0; stroke:none;" d="M485 452L486 453L485 452z"/>
<path style="fill:#6b6b6b; stroke:none;" d="M93 453L94 454L93 453M418 453L419 454L418 453z"/>
<path style="fill:#303030; stroke:none;" d="M27 454L28 455L27 454z"/>
<path style="fill:#a0a0a0; stroke:none;" d="M94 454L95 455L94 454z"/>
<path style="fill:#303030; stroke:none;" d="M95 454L96 455L95 454M416 454L417 455L416 454z"/>
<path style="fill:#a0a0a0; stroke:none;" d="M417 454L418 455L417 454z"/>
<path style="fill:#303030; stroke:none;" d="M484 454L485 455L484 454z"/>
<path style="fill:#6b6b6b; stroke:none;" d="M28 455L29 456L28 455z"/>
<path style="fill:#a0a0a0; stroke:none;" d="M96 455L97 456L96 455z"/>
<path style="fill:#303030; stroke:none;" d="M97 455L98 456L97 455M414 455L415 456L414 455z"/>
<path style="fill:#a0a0a0; stroke:none;" d="M415 455L416 456L415 455z"/>
<path style="fill:#6b6b6b; stroke:none;" d="M483 455L484 456L483 455z"/>
<path style="fill:#a0a0a0; stroke:none;" d="M29 456L30 457L29 456M98 456L99 457L98 456z"/>
<path style="fill:#303030; stroke:none;" d="M99 456L100 457L99 456M412 456L413 457L412 456z"/>
<path style="fill:#a0a0a0; stroke:none;" d="M413 456L414 457L413 456M482 456L483 457L482 456M100 457L101 458L100 457z"/>
<path style="fill:#303030; stroke:none;" d="M101 457L102 458L101 457M410 457L411 458L410 457z"/>
<path style="fill:#a0a0a0; stroke:none;" d="M411 457L412 458L411 457z"/>
<path style="fill:#303030; stroke:none;" d="M30 458L31 459L30 458z"/>
<path style="fill:#a0a0a0; stroke:none;" d="M102 458L103 459L102 458z"/>
<path style="fill:#303030; stroke:none;" d="M103 458L104 459L103 458M408 458L409 459L408 458z"/>
<path style="fill:#a0a0a0; stroke:none;" d="M409 458L410 459L409 458z"/>
<path style="fill:#303030; stroke:none;" d="M481 458L482 459L481 458z"/>
<path style="fill:#6b6b6b; stroke:none;" d="M31 459L32 460L31 459z"/>
<path style="fill:#a0a0a0; stroke:none;" d="M104 459L105 460L104 459z"/>
<path style="fill:#6b6b6b; stroke:none;" d="M105 459L106 460L105 459M406 459L407 460L406 459z"/>
<path style="fill:#a0a0a0; stroke:none;" d="M407 459L408 460L407 459z"/>
<path style="fill:#6b6b6b; stroke:none;" d="M480 459L481 460L480 459z"/>
<path style="fill:#a0a0a0; stroke:none;" d="M32 460L33 461L32 460M107 460L108 461L107 460z"/>
<path style="fill:#6b6b6b; stroke:none;" d="M108 460L109 461L108 460M403 460L404 461L403 460z"/>
<path style="fill:#a0a0a0; stroke:none;" d="M404 460L405 461L404 460M479 460L480 461L479 460M33 461L34 462L33 461M110 461L111 462L110 461z"/>
<path style="fill:#303030; stroke:none;" d="M111 461L112 462L111 461M400 461L401 462L400 461z"/>
<path style="fill:#a0a0a0; stroke:none;" d="M401 461L402 462L401 461M478 461L479 462L478 461M113 462L114 463L113 462z"/>
<path style="fill:#6b6b6b; stroke:none;" d="M114 462L115 463L114 462M397 462L398 463L397 462z"/>
<path style="fill:#a0a0a0; stroke:none;" d="M398 462L399 463L398 462z"/>
<path style="fill:#303030; stroke:none;" d="M34 463L35 464L34 463z"/>
<path style="fill:#a0a0a0; stroke:none;" d="M116.667 463.333L117.333 463.667L116.667 463.333z"/>
<path style="fill:#303030; stroke:none;" d="M118 463L119 464L118 463M393 463L394 464L393 463z"/>
<path style="fill:#a0a0a0; stroke:none;" d="M394.667 463.333L395.333 463.667L394.667 463.333z"/>
<path style="fill:#303030; stroke:none;" d="M477 463L478 464L477 463M35 464L36 465L35 464z"/>
<path style="fill:#a0a0a0; stroke:none;" d="M120 464L121 465L120 464z"/>
<path style="fill:#6b6b6b; stroke:none;" d="M121 464L122 465L121 464z"/>
<path style="fill:#303030; stroke:none;" d="M122.667 464.333L123.333 464.667L122.667 464.333M388.667 464.333L389.333 464.667L388.667 464.333z"/>
<path style="fill:#6b6b6b; stroke:none;" d="M390 464L391 465L390 464z"/>
<path style="fill:#a0a0a0; stroke:none;" d="M391 464L392 465L391 464z"/>
<path style="fill:#303030; stroke:none;" d="M476 464L477 465L476 464M36 465L37 466L36 465z"/>
<path style="fill:#a0a0a0; stroke:none;" d="M126.667 465.333L127.333 465.667L126.667 465.333z"/>
<path style="fill:#6b6b6b; stroke:none;" d="M128 465L129 466L128 465z"/>
<path style="fill:#303030; stroke:none;" d="M129 465L130 466L129 465M382 465L383 466L382 465z"/>
<path style="fill:#6b6b6b; stroke:none;" d="M383 465L384 466L383 465z"/>
<path style="fill:#a0a0a0; stroke:none;" d="M384.667 465.333L385.333 465.667L384.667 465.333z"/>
<path style="fill:#303030; stroke:none;" d="M475 465L476 466L475 465M37 466L38 467L37 466z"/>
<path style="fill:#a0a0a0; stroke:none;" d="M134 466L134 467L140 467L134 466z"/>
<path style="fill:#6b6b6b; stroke:none;" d="M140 466L140 467L372 467L350 466L303 466L140 466z"/>
<path style="fill:#a0a0a0; stroke:none;" d="M372 466L372 467L378 467L372 466z"/>
<path style="fill:#303030; stroke:none;" d="M474 466L475 467L474 466z"/>
<path style="fill:#6b6b6b; stroke:none;" d="M38 467L39 468L38 467M473 467L474 468L473 467M39 468L40 469L39 468M472 468L473 469L472 468z"/>
<path style="fill:#a0a0a0; stroke:none;" d="M40 469L41 470L40 469M471 469L472 470L471 469M41 470L42 471L41 470M470 470L471 471L470 470M42 471L43 472L42 471M469 471L470 472L469 471z"/>
<path style="fill:#6b6b6b; stroke:none;" d="M43 472L44 473L43 472M468 472L469 473L468 472M44 473L45 474L44 473M467 473L468 474L467 473z"/>
<path style="fill:#303030; stroke:none;" d="M45 474L46 475L45 474M466 474L467 475L466 474M46 475L47 476L46 475M465 475L466 476L465 475M47 476L48 477L47 476M464 476L465 477L464 476M48 477L49 478L48 477M463 477L464 478L463 477z"/>
<path style="fill:#a0a0a0; stroke:none;" d="M50 478L51 479L50 478M461 478L462 479L461 478M51 479L52 480L51 479M460 479L461 480L460 479z"/>
<path style="fill:#6b6b6b; stroke:none;" d="M52 480L53 481L52 480M459 480L460 481L459 480z"/>
<path style="fill:#303030; stroke:none;" d="M53 481L54 482L53 481M458 481L459 482L458 481z"/>
<path style="fill:#a0a0a0; stroke:none;" d="M55 482L56 483L55 482M456 482L457 483L456 482z"/>
<path style="fill:#6b6b6b; stroke:none;" d="M56 483L57 484L56 483M455 483L456 484L455 483z"/>
<path style="fill:#303030; stroke:none;" d="M57 484L58 485L57 484M454 484L455 485L454 484z"/>
<path style="fill:#a0a0a0; stroke:none;" d="M59 485L60 486L59 485M452 485L453 486L452 485z"/>
<path style="fill:#6b6b6b; stroke:none;" d="M60 486L61 487L60 486M451 486L452 487L451 486z"/>
<path style="fill:#303030; stroke:none;" d="M61 487L62 488L61 487M450 487L451 488L450 487z"/>
<path style="fill:#a0a0a0; stroke:none;" d="M63 488L64 489L63 488M448 488L449 489L448 488z"/>
<path style="fill:#303030; stroke:none;" d="M64 489L65 490L64 489z"/>
<path style="fill:#a0a0a0; stroke:none;" d="M65 489L66 490L65 489M446 489L447 490L446 489z"/>
<path style="fill:#303030; stroke:none;" d="M447 489L448 490L447 489z"/>
<path style="fill:#6b6b6b; stroke:none;" d="M66 490L67 491L66 490M445 490L446 491L445 490z"/>
<path style="fill:#a0a0a0; stroke:none;" d="M68 491L69 492L68 491M443 491L444 492L443 491z"/>
<path style="fill:#303030; stroke:none;" d="M69 492L70 493L69 492z"/>
<path style="fill:#a0a0a0; stroke:none;" d="M70 492L71 493L70 492M441 492L442 493L441 492z"/>
<path style="fill:#303030; stroke:none;" d="M442 492L443 493L442 492z"/>
<path style="fill:#6b6b6b; stroke:none;" d="M71 493L72 494L71 493M440 493L441 494L440 493z"/>
<path style="fill:#a0a0a0; stroke:none;" d="M73 494L74 495L73 494M438 494L439 495L438 494z"/>
<path style="fill:#303030; stroke:none;" d="M74 495L75 496L74 495z"/>
<path style="fill:#a0a0a0; stroke:none;" d="M75 495L76 496L75 495M436 495L437 496L436 495z"/>
<path style="fill:#303030; stroke:none;" d="M437 495L438 496L437 495M76 496L77 497L76 496z"/>
<path style="fill:#a0a0a0; stroke:none;" d="M77 496L78 497L77 496M434 496L435 497L434 496z"/>
<path style="fill:#303030; stroke:none;" d="M435 496L436 497L435 496M78 497L79 498L78 497z"/>
<path style="fill:#a0a0a0; stroke:none;" d="M79 497L80 498L79 497M432 497L433 498L432 497z"/>
<path style="fill:#303030; stroke:none;" d="M433 497L434 498L433 497z"/>
<path style="fill:#a0a0a0; stroke:none;" d="M81 498L82 499L81 498M430 498L431 499L430 498z"/>
<path style="fill:#6b6b6b; stroke:none;" d="M83 499L84 500L83 499M428 499L429 500L428 499M85 500L86 501L85 500M426 500L427 501L426 500z"/>
<path style="fill:#303030; stroke:none;" d="M87 501L88 502L87 501z"/>
<path style="fill:#a0a0a0; stroke:none;" d="M88 501L89 502L88 501M423 501L424 502L423 501z"/>
<path style="fill:#303030; stroke:none;" d="M424 501L425 502L424 501z"/>
<path style="fill:#6b6b6b; stroke:none;" d="M90 502L91 503L90 502z"/>
<path style="fill:#a0a0a0; stroke:none;" d="M91 502L92 503L91 502M420 502L421 503L420 502z"/>
<path style="fill:#6b6b6b; stroke:none;" d="M421 502L422 503L421 502z"/>
<path style="fill:#303030; stroke:none;" d="M92 503L93 504L92 503z"/>
<path style="fill:#6b6b6b; stroke:none;" d="M93 503L94 504L93 503M418 503L419 504L418 503z"/>
<path style="fill:#303030; stroke:none;" d="M419 503L420 504L419 503M95 504L96 505L95 504z"/>
<path style="fill:#a0a0a0; stroke:none;" d="M96 504L97 505L96 504M415 504L416 505L415 504z"/>
<path style="fill:#303030; stroke:none;" d="M416 504L417 505L416 504z"/>
<path style="fill:#6b6b6b; stroke:none;" d="M98 505L99 506L98 505z"/>
<path style="fill:#a0a0a0; stroke:none;" d="M99 505L100 506L99 505M412 505L413 506L412 505z"/>
<path style="fill:#6b6b6b; stroke:none;" d="M413 505L414 506L413 505z"/>
<path style="fill:#303030; stroke:none;" d="M101 506L102 507L101 506z"/>
<path style="fill:#6b6b6b; stroke:none;" d="M102 506L103 507L102 506z"/>
<path style="fill:#a0a0a0; stroke:none;" d="M103 506L104 507L103 506M408 506L409 507L408 506z"/>
<path style="fill:#6b6b6b; stroke:none;" d="M409 506L410 507L409 506z"/>
<path style="fill:#303030; stroke:none;" d="M410 506L411 507L410 506M105 507L106 508L105 507z"/>
<path style="fill:#6b6b6b; stroke:none;" d="M106 507L107 508L106 507z"/>
<path style="fill:#a0a0a0; stroke:none;" d="M107 507L108 508L107 507M404 507L405 508L404 507z"/>
<path style="fill:#6b6b6b; stroke:none;" d="M405 507L406 508L405 507z"/>
<path style="fill:#303030; stroke:none;" d="M406 507L407 508L406 507M109 508L110 509L109 508z"/>
<path style="fill:#6b6b6b; stroke:none;" d="M110 508L111 509L110 508z"/>
<path style="fill:#a0a0a0; stroke:none;" d="M111 508L112 509L111 508M400 508L401 509L400 508z"/>
<path style="fill:#6b6b6b; stroke:none;" d="M401 508L402 509L401 508z"/>
<path style="fill:#303030; stroke:none;" d="M402 508L403 509L402 508M113 509L114 510L113 509z"/>
<path style="fill:#6b6b6b; stroke:none;" d="M114 509L115 510L114 509z"/>
<path style="fill:#a0a0a0; stroke:none;" d="M115.667 509.333L116.333 509.667L115.667 509.333M395.667 509.333L396.333 509.667L395.667 509.333z"/>
<path style="fill:#6b6b6b; stroke:none;" d="M397 509L398 510L397 509z"/>
<path style="fill:#303030; stroke:none;" d="M398 509L399 510L398 509M119.667 510.333L120.333 510.667L119.667 510.333z"/>
<path style="fill:#6b6b6b; stroke:none;" d="M121 510L122 511L121 510z"/>
<path style="fill:#a0a0a0; stroke:none;" d="M122.667 510.333L123.333 510.667L122.667 510.333M388.667 510.333L389.333 510.667L388.667 510.333z"/>
<path style="fill:#6b6b6b; stroke:none;" d="M390 510L391 511L390 510z"/>
<path style="fill:#303030; stroke:none;" d="M391.667 510.333L392.333 510.667L391.667 510.333M126.667 511.333L127.333 511.667L126.667 511.333z"/>
<path style="fill:#6b6b6b; stroke:none;" d="M128 511L128 512L132 512L128 511z"/>
<path style="fill:#a0a0a0; stroke:none;" d="M132 511L132 512L138 512L132 511M374 511L374 512L380 512L374 511z"/>
<path style="fill:#6b6b6b; stroke:none;" d="M380 511L380 512L384 512L380 511z"/>
<path style="fill:#303030; stroke:none;" d="M384.667 511.333L385.333 511.667L384.667 511.333z"/>
</svg>
